<?xml version="1.0" standalone="no"?><!DOCTYPE svg PUBLIC "-//W3C//DTD SVG 1.1//EN" "http://www.w3.org/Graphics/SVG/1.1/DTD/svg11.dtd"><svg height="600" node-id="1" sillyvg="true" template-height="600" template-width="600" version="1.1" viewBox="0 0 600 600" width="600" xmlns="http://www.w3.org/2000/svg" xmlns:xlink="http://www.w3.org/1999/xlink"><defs node-id="101"></defs><g node-id="103"><path d="M 373.50 373.60 L 362.80 373.60 C 364.90 370.70 366.20 366.70 366.20 362.40 C 366.20 353.30 360.60 346.00 353.60 346.00 L 100.70 346.00 C 93.70 346.00 88.10 353.40 88.10 362.40 C 88.10 371.50 93.70 378.80 100.70 378.80 L 107.90 378.80 C 109.00 378.80 110.00 379.10 110.80 379.60 C 109.00 382.40 107.90 386.10 107.90 390.00 C 107.90 399.10 113.50 406.40 120.50 406.40 L 127.70 406.40 C 131.70 406.40 134.90 410.70 134.90 416.00 L 134.90 416.10 C 134.90 425.20 140.50 432.50 147.50 432.50 L 327.20 432.50 C 334.20 432.50 339.80 425.10 339.80 416.10 L 339.80 416.10 C 339.80 416.10 339.80 416.00 339.80 416.00 C 339.80 410.80 343.00 406.40 347.00 406.40 L 373.50 406.40 C 380.50 406.40 386.10 399.00 386.10 390.00 C 386.10 380.90 380.50 373.60 373.50 373.60 Z" fill="#e1ecff" fill-rule="nonzero" group-id="1" id="XMLID_58_" node-id="3" stroke="none" target-height="86.5" target-width="298" target-x="88.09999" target-y="346"></path></g><g node-id="104"><g node-id="120"><path d="M 355.30 284.30 L 220.60 233.10 L 218.70 326.90 L 337.90 382.70 C 341.00 384.20 344.60 382.10 345.00 378.70 L 355.30 284.30 Z" fill="#fc7ec1" fill-rule="nonzero" group-id="2,18" id="XMLID_197_" node-id="6" stroke="none" target-height="151.1" target-width="136.59999" target-x="218.7" target-y="233.1"></path><path d="M 142.90 359.50 L 218.70 326.90 L 220.60 233.10 L 130.30 271.50 L 135.70 355.10 C 136.00 358.70 139.60 360.90 142.90 359.50 Z" fill="#f969bb" fill-rule="nonzero" group-id="2,18" id="XMLID_195_" node-id="7" stroke="none" target-height="127.79999" target-width="90.3" target-x="130.3" target-y="233.1"></path><path d="M 220.60 233.10 L 193.10 233.10 C 187.90 233.10 182.80 234.20 178.10 236.30 L 103.00 269.50 C 101.00 270.40 101.70 273.40 103.90 273.20 L 130.20 271.50 L 220.60 233.10 Z" fill="#ff97c9" fill-rule="nonzero" group-id="2,18" id="XMLID_194_" node-id="8" stroke="none" target-height="40.299988" target-width="119.600006" target-x="101" target-y="233.1"></path><path d="M 220.60 233.10 L 355.30 284.30 L 369.80 284.30 C 371.50 284.30 371.90 281.90 370.30 281.30 L 244.00 234.60 C 241.40 233.60 238.60 233.10 235.80 233.10 L 220.60 233.10 Z" fill="#ff97c9" fill-rule="nonzero" group-id="2,18" id="XMLID_193_" node-id="9" stroke="none" target-height="51.19998" target-width="151.29999" target-x="220.6" target-y="233.1"></path></g></g><g node-id="105"><g node-id="121"><g node-id="134"><g node-id="146"><path d="M 253.00 349.00 L 243.10 377.30 C 243.10 377.30 224.50 358.40 208.80 325.90 C 204.80 317.70 203.30 309.00 203.20 300.70 C 202.90 279.80 212.10 261.50 216.20 261.10 C 220.50 260.70 214.90 277.80 216.40 295.00 C 216.90 300.70 218.10 306.30 220.70 311.40 C 234.10 337.70 253.00 349.00 253.00 349.00 Z" fill="#ff8d76" fill-rule="nonzero" group-id="3,19,32,44" id="XMLID_175_" node-id="14" stroke="none" target-height="116.599945" target-width="50.100006" target-x="202.9" target-y="260.7"></path></g></g><path d="M 216.30 295.00 C 213.20 296.90 207.90 299.70 203.10 300.60 C 202.80 279.70 212.00 261.40 216.10 261.00 C 220.40 260.70 214.90 277.80 216.30 295.00 Z" fill="#ffd3b3" fill-rule="nonzero" group-id="3,19" id="XMLID_169_" node-id="15" stroke="none" target-height="39.899994" target-width="17.599976" target-x="202.8" target-y="260.7"></path></g></g><g node-id="106"><g node-id="122"><path d="M 318.20 357.50 C 317.40 377.80 301.50 395.00 280.30 398.00 C 276.80 398.50 273.10 398.80 269.10 398.80 C 265.20 398.80 261.70 398.70 258.40 398.30 C 238.50 396.20 222.80 381.20 220.40 362.40 C 218.10 344.20 216.50 317.00 223.80 298.60 C 225.60 294.00 228.10 290.10 231.00 286.70 C 241.00 275.30 256.00 271.20 267.80 271.00 C 279.70 270.80 296.40 273.80 307.00 285.40 C 311.90 290.70 315.50 297.80 316.80 307.30 C 318.90 323.00 318.80 342.50 318.20 357.50 Z" fill="#fea691" fill-rule="nonzero" group-id="4,20" id="XMLID_185_" node-id="18" stroke="none" target-height="128" target-width="102.399994" target-x="216.5" target-y="270.8"></path><path d="M 267.60 379.70 C 286.80 380.00 300.60 371.90 301.90 351.30 C 303.20 330.70 306.20 297.40 269.10 296.60 C 232.00 295.80 235.90 333.20 235.60 347.20 C 235.30 361.20 243.90 379.30 267.60 379.70 Z" fill="#ffd3b3" fill-rule="nonzero" group-id="4,20" id="XMLID_184_" node-id="19" stroke="none" target-height="84.20001" target-width="74.20001" target-x="232" target-y="295.8"></path><path d="M 306.90 285.50 C 296.70 290.70 282.80 294.00 267.50 294.00 C 253.50 294.00 240.70 291.30 230.90 286.90 C 240.90 275.50 255.90 271.40 267.70 271.20 C 279.60 270.90 296.30 273.90 306.90 285.50 Z" fill="#ff8d76" fill-rule="nonzero" group-id="4,20" id="XMLID_181_" node-id="20" stroke="none" target-height="23.100006" target-width="76" target-x="230.9" target-y="270.9"></path></g></g><g node-id="107"><g node-id="123"><g node-id="135"><path d="M 130.30 271.50 L 135.70 354.90 C 136.00 359.60 138.70 363.80 142.90 366.00 L 259.50 427.70 L 261.30 327.10 L 130.30 271.50 Z" fill="#ff97c9" fill-rule="nonzero" group-id="5,21,33" id="XMLID_25_" node-id="24" stroke="none" target-height="156.20001" target-width="130.99998" target-x="130.3" target-y="271.5"></path><path d="M 133.70 324.20 L 229.30 370.80 C 234.30 373.20 240.20 371.70 243.40 367.20 L 261.20 341.80 L 261.20 327.10 L 130.20 271.50 L 133.70 324.20 Z" fill="#fc7ec1" fill-rule="nonzero" group-id="5,21,33" id="XMLID_30_" node-id="25" stroke="none" target-height="101.69998" target-width="131.00002" target-x="130.2" target-y="271.5"></path><path d="M 116.80 308.50 L 230.50 362.10 C 233.80 363.70 237.70 362.60 239.80 359.50 L 261.40 327.10 L 130.40 271.50 L 113.80 297.90 C 111.30 301.70 112.80 306.60 116.80 308.50 Z" fill="#ff97c9" fill-rule="nonzero" group-id="5,21,33" id="XMLID_28_" node-id="26" stroke="none" target-height="92.20001" target-width="150.09999" target-x="111.3" target-y="271.5"></path></g><g node-id="136"><path d="M 336.30 389.70 L 259.50 427.70 L 261.30 327.10 L 355.30 284.30 L 345.20 377.00 C 344.60 382.50 341.20 387.20 336.30 389.70 Z" fill="#fc7ec1" fill-rule="nonzero" group-id="5,21,34" id="XMLID_26_" node-id="28" stroke="none" target-height="143.40002" target-width="95.79999" target-x="259.5" target-y="284.3"></path><path d="M 261.30 341.80 L 271.90 364.80 C 274.50 370.40 281.20 372.70 286.70 370.00 L 349.50 338.30 L 355.40 284.40 L 261.40 327.20 L 261.40 341.80 Z" fill="#f969bb" fill-rule="nonzero" group-id="5,21,34" id="XMLID_31_" node-id="29" stroke="none" target-height="88.29999" target-width="94.100006" target-x="261.3" target-y="284.4"></path><path d="M 279.60 359.50 L 261.30 327.10 L 355.30 284.30 L 372.40 313.00 C 374.10 315.80 373.00 319.50 370.10 320.90 L 287.00 361.70 C 284.30 363.00 281.10 362.00 279.60 359.50 Z" fill="#ff97c9" fill-rule="nonzero" group-id="5,21,34" id="XMLID_27_" node-id="30" stroke="none" target-height="78.70001" target-width="112.80002" target-x="261.3" target-y="284.3"></path></g></g></g><g node-id="108"><g node-id="124"><path d="M 377.10 229.50 C 376.90 233.50 372.40 256.40 349.90 275.70 C 328.90 293.70 300.50 307.40 300.50 307.40 L 298.90 265.20 C 298.90 265.20 324.70 257.60 339.80 244.50 C 354.90 231.40 360.20 218.50 364.00 216.90 C 365.60 216.20 367.00 216.30 368.00 216.50 C 369.40 216.80 370.20 217.60 370.20 217.60 C 370.20 217.60 370.30 217.60 370.50 217.50 C 371.20 217.30 372.90 217.10 374.50 218.90 C 375.60 220.10 375.30 223.60 375.30 223.60 C 375.30 223.60 376.50 224.80 376.80 227.30 C 377.10 228.00 377.20 228.70 377.10 229.50 Z" fill="#fea691" fill-rule="nonzero" group-id="6,22" id="XMLID_147_" node-id="33" stroke="none" target-height="91.20001" target-width="78.30002" target-x="298.9" target-y="216.19998"></path><g node-id="137"><path d="M 367.41 243.83 C 366.22 245.83 364.43 247.38 362.45 248.12 C 360.46 248.86 358.43 248.73 356.81 247.77 C 355.20 246.81 354.12 245.09 353.81 243.00 C 353.51 240.90 354.01 238.59 355.20 236.58 C 356.39 234.58 358.17 233.03 360.16 232.29 C 362.15 231.55 364.17 231.68 365.79 232.64 C 367.41 233.60 368.49 235.32 368.80 237.42 C 369.10 239.51 368.60 241.82 367.41 243.83 Z" fill="#ffd3b3" fill-rule="nonzero" group-id="6,22,35" id="XMLID_146_" node-id="34" stroke="none" target-height="17.305573" target-width="15.590851" target-x="353.50903" target-y="231.55258"></path></g><path d="M 370.70 217.60 C 370.50 218.50 370.10 220.00 369.20 222.20 C 367.60 226.00 366.40 227.70 365.80 227.90 C 364.30 228.50 364.10 226.40 365.60 223.50 C 366.70 221.20 367.70 217.90 368.10 216.60 C 369.50 216.90 370.30 217.70 370.30 217.70 C 370.30 217.70 370.50 217.60 370.70 217.60 Z" fill="#ff8d76" fill-rule="nonzero" group-id="6,22" id="XMLID_141_" node-id="35" stroke="none" target-height="11.900009" target-width="6.600006" target-x="364.1" target-y="216.6"></path><path d="M 377.10 227.40 C 376.90 227.80 376.80 228.20 376.60 228.70 C 374.90 232.50 373.60 234.10 373.00 234.30 C 371.50 234.80 371.40 232.80 372.90 229.90 C 374.50 227.00 375.60 223.70 375.60 223.70 C 375.60 223.70 376.70 224.90 377.10 227.40 Z" fill="#ff8d76" fill-rule="nonzero" group-id="6,22" id="XMLID_140_" node-id="36" stroke="none" target-height="11.100021" target-width="5.700012" target-x="371.4" target-y="223.69998"></path><g node-id="138"><path d="M 301.70 307.00 C 301.20 307.00 300.70 306.70 300.50 306.20 C 300.20 305.50 300.50 304.70 301.20 304.40 C 301.40 304.30 325.30 293.90 345.60 277.20 C 371.30 256.10 374.50 234.90 374.50 234.70 C 374.60 234.00 375.30 233.40 376.00 233.50 C 376.70 233.60 377.30 234.30 377.20 235.00 C 377.10 235.90 373.90 257.30 347.30 279.20 C 326.70 296.10 302.60 306.70 302.30 306.80 C 302.10 306.90 301.90 307.00 301.70 307.00 Z" fill="#ff8d76" fill-rule="nonzero" group-id="6,22,36" id="XMLID_139_" node-id="38" stroke="none" target-height="73.600006" target-width="77.099945" target-x="300.2" target-y="233.4"></path></g></g></g><g node-id="109"><g node-id="125"><path d="M 278.70 185.10 C 278.70 185.10 288.70 162.40 294.60 161.30 C 300.40 160.20 303.40 174.50 305.80 186.40 C 308.30 198.30 308.90 208.20 308.90 208.20 L 278.70 185.10 Z" fill="#fea691" fill-rule="nonzero" group-id="7,23" id="XMLID_148_" node-id="41" stroke="none" target-height="47.999985" target-width="30.199982" target-x="278.7" target-y="160.2"></path><path d="M 283.90 185.00 C 283.90 185.00 290.50 170.20 294.30 169.50 C 298.10 168.80 300.00 178.20 301.60 185.90 C 303.20 193.70 303.70 200.10 303.70 200.10 L 283.90 185.00 Z" fill="#ffd3b3" fill-rule="nonzero" group-id="7,23" id="XMLID_154_" node-id="42" stroke="none" target-height="31.300003" target-width="19.800018" target-x="283.9" target-y="168.8"></path><path d="M 257.50 185.10 C 257.50 185.10 247.50 162.40 241.60 161.30 C 235.80 160.20 232.80 174.50 230.40 186.40 C 228.00 198.30 227.30 208.20 227.30 208.20 L 257.50 185.10 Z" fill="#fea691" fill-rule="nonzero" group-id="7,23" id="XMLID_158_" node-id="43" stroke="none" target-height="47.999985" target-width="30.199997" target-x="227.3" target-y="160.2"></path><path d="M 252.30 185.00 C 252.30 185.00 245.70 170.20 241.90 169.50 C 238.10 168.80 236.20 178.20 234.60 185.90 C 233.00 193.70 232.50 200.10 232.50 200.10 L 252.30 185.00 Z" fill="#ffd3b3" fill-rule="nonzero" group-id="7,23" id="XMLID_157_" node-id="44" stroke="none" target-height="31.300003" target-width="19.800003" target-x="232.5" target-y="168.8"></path><path d="M 311.80 247.50 L 285.60 246.80 L 247.70 245.80 L 223.40 245.20 C 223.40 245.20 222.30 211.10 232.20 194.70 C 237.40 186.00 247.10 179.90 257.80 177.40 C 263.20 176.10 268.90 175.70 274.40 176.40 C 281.60 177.30 288.50 180.00 293.90 184.80 C 311.40 200.30 309.60 214.70 310.70 226.60 C 311.80 238.50 311.80 247.50 311.80 247.50 Z" fill="#fea691" fill-rule="nonzero" group-id="7,23" id="XMLID_156_" node-id="45" stroke="none" target-height="71.80002" target-width="89.499985" target-x="222.3" target-y="175.69998"></path><path d="M 285.60 246.80 L 247.70 245.80 C 249.70 240.70 253.20 230.10 255.20 215.70 C 257.20 201.70 257.60 186.10 257.70 177.40 C 263.10 176.10 268.80 175.70 274.30 176.40 C 274.40 184.50 275.00 198.60 277.40 214.40 C 280.10 232.00 283.80 242.40 285.60 246.80 Z" fill="#ffd3b3" fill-rule="nonzero" group-id="7,23" id="XMLID_152_" node-id="46" stroke="none" target-height="71.100006" target-width="37.900024" target-x="247.69998" target-y="175.69998"></path><path d="M 315.40 257.40 C 315.40 273.90 294.00 287.30 267.60 287.30 C 241.20 287.30 219.80 273.90 219.80 257.40 C 219.80 236.90 241.20 227.50 267.60 227.50 C 294.00 227.50 315.40 237.90 315.40 257.40 Z" fill="#ffd3b3" fill-rule="nonzero" group-id="7,23" id="XMLID_82_" node-id="47" stroke="none" target-height="59.800003" target-width="95.59999" target-x="219.8" target-y="227.49998"></path><g node-id="139"><g node-id="147"><path d="M 255.60 239.10 C 258.20 235.40 277.50 234.10 280.20 238.20 C 282.90 242.20 275.80 250.90 268.90 250.90 C 262.00 250.90 252.10 244.00 255.60 239.10" fill="#413f4c" fill-rule="nonzero" group-id="7,23,37,45" id="XMLID_122_" node-id="50" stroke="none" target-height="16.799988" target-width="30.799973" target-x="252.10002" target-y="234.1"></path></g></g><g node-id="140"><path d="M 234.20 193.70 C 233.90 193.70 233.60 193.60 233.40 193.40 C 232.80 193.00 232.70 192.10 233.10 191.50 C 233.20 191.30 236.50 187.00 242.20 183.30 C 249.00 178.80 252.50 177.90 252.60 177.90 C 253.30 177.70 254.10 178.10 254.20 178.90 C 254.40 179.60 254.00 180.40 253.20 180.50 C 253.20 180.50 249.90 181.40 243.60 185.60 C 238.30 189.10 235.10 193.20 235.10 193.20 C 235.00 193.50 234.60 193.70 234.20 193.70 Z" fill="#ff8d76" fill-rule="nonzero" group-id="7,23,38" id="XMLID_160_" node-id="52" stroke="none" target-height="16" target-width="21.699982" target-x="232.70001" target-y="177.7"></path></g><path d="M 300.20 193.70 C 300.50 193.70 300.80 193.60 301.00 193.40 C 301.60 193.00 301.70 192.10 301.30 191.50 C 301.20 191.30 297.90 187.00 292.20 183.30 C 285.40 178.80 281.90 177.90 281.80 177.90 C 281.10 177.70 280.30 178.10 280.20 178.90 C 280.00 179.60 280.40 180.40 281.20 180.50 C 281.20 180.50 284.50 181.40 290.80 185.60 C 296.10 189.10 299.30 193.20 299.30 193.20 C 299.40 193.50 299.80 193.70 300.20 193.70 Z" fill="#ff8d76" fill-rule="nonzero" group-id="7,23,39" id="XMLID_162_" node-id="54" stroke="none" target-height="16" target-width="21.700012" target-x="280" target-y="177.7"></path></g></g><g node-id="110"><g node-id="126"><g node-id="142"><path d="M 258.10 265.50 C 258.10 265.50 265.80 264.70 269.50 258.70 C 273.90 264.80 280.30 263.40 280.30 263.40 C 280.30 263.40 281.60 275.40 270.70 276.30 C 259.20 277.30 258.10 265.50 258.10 265.50" fill="#ff6ea9" fill-rule="nonzero" group-id="8,24,40" id="XMLID_112_" node-id="58" stroke="none" target-height="18.599976" target-width="23.5" target-x="258.1" target-y="258.7"></path></g><path d="M 269.40 272.40 C 268.60 272.30 267.90 271.60 268.00 270.80 C 268.10 266.80 267.80 259.70 267.80 259.60 C 267.80 258.70 268.40 258.00 269.30 258.00 C 270.10 258.00 270.90 258.60 270.90 259.50 C 270.90 259.80 271.20 266.90 271.10 271.00 C 271.00 271.70 270.30 272.40 269.40 272.40 C 269.50 272.40 269.40 272.40 269.40 272.40 Z" fill="#ea4e95" fill-rule="nonzero" group-id="8,24,41" id="XMLID_110_" node-id="60" stroke="none" target-height="14.399994" target-width="3.4000244" target-x="267.8" target-y="258"></path></g></g><g node-id="111"><g node-id="127"><path d="M 256.90 267.10 C 252.20 267.10 248.60 265.40 248.50 265.30 C 247.60 264.90 247.30 263.80 247.70 262.90 C 248.10 262.00 249.20 261.70 250.10 262.10 L 250.10 262.10 C 250.50 262.30 260.90 267.30 268.10 257.70 C 268.40 257.20 269.00 257.00 269.50 257.00 C 270.10 257.00 270.60 257.30 270.90 257.80 C 275.70 264.70 285.40 261.20 285.80 261.10 C 286.70 260.80 287.70 261.20 288.10 262.10 C 288.40 263.00 288.00 264.00 287.10 264.40 C 283.10 265.90 274.80 267.00 269.50 261.60 C 265.40 265.90 260.80 267.10 256.90 267.10 Z" fill="#413f4c" fill-rule="nonzero" group-id="9,25" id="XMLID_88_" node-id="63" stroke="none" target-height="10.299988" target-width="41.100006" target-x="247.29999" target-y="257"></path></g></g><g node-id="112"><path d="M 293.00 220.40 C 293.00 223.27 291.03 225.60 288.60 225.60 C 286.17 225.60 284.20 223.27 284.20 220.40 C 284.20 217.53 286.17 215.20 288.60 215.20 C 291.03 215.20 293.00 217.53 293.00 220.40 Z" fill="#413f4c" fill-rule="nonzero" group-id="10" id="XMLID_99_" node-id="65" stroke="none" target-height="10.400009" target-width="8.799988" target-x="284.2" target-y="215.2"></path></g><g node-id="113"><path d="M 248.60 220.40 C 248.60 223.27 246.63 225.60 244.20 225.60 C 241.77 225.60 239.80 223.27 239.80 220.40 C 239.80 217.53 241.77 215.20 244.20 215.20 C 246.63 215.20 248.60 217.53 248.60 220.40 Z" fill="#413f4c" fill-rule="nonzero" group-id="11" id="XMLID_84_" node-id="67" stroke="none" target-height="10.400009" target-width="8.799957" target-x="239.80002" target-y="215.2"></path></g><g node-id="114"><g node-id="128"><path d="M 281.20 204.40 C 282.00 201.70 286.80 202.00 290.30 203.20 C 293.80 204.40 296.60 206.70 295.80 208.10 C 295.00 209.60 279.60 209.60 281.20 204.40" fill="#ffd3b3" fill-rule="nonzero" group-id="12,26" id="XMLID_97_" node-id="70" stroke="none" target-height="7.900009" target-width="17" target-x="279.6" target-y="201.7"></path></g></g><g node-id="115"><g node-id="129"><path d="M 249.90 204.30 C 249.00 201.60 244.20 202.00 240.70 203.30 C 237.20 204.60 234.50 206.90 235.40 208.30 C 236.30 209.70 251.70 209.40 249.90 204.30" fill="#ffd3b3" fill-rule="nonzero" group-id="13,27" id="XMLID_153_" node-id="73" stroke="none" target-height="8.099991" target-width="17.199997" target-x="234.5" target-y="201.6"></path></g></g><g node-id="116"><g node-id="130"><g node-id="144"><path d="M 506.70 400.90 L 455.60 418.60 L 432.00 426.80 L 426.30 428.80 L 384.70 443.20 C 378.80 445.30 372.20 443.80 367.60 439.50 L 362.30 434.40 C 359.30 431.50 359.50 426.80 362.20 424.10 C 362.90 423.40 363.80 422.80 364.80 422.50 L 486.60 380.10 C 490.20 378.90 494.10 379.60 496.90 382.10 L 508.20 391.90 C 508.60 392.20 508.90 392.60 509.20 393.00 C 511.20 395.80 510.10 399.70 506.70 400.90 Z" fill="#bbcbff" fill-rule="nonzero" group-id="14,28,42" id="XMLID_90_" node-id="77" stroke="none" target-height="66.399994" target-width="151.90002" target-x="359.3" target-y="378.9"></path><path d="M 476.70 457.90 L 419.50 476.20 C 414.20 477.90 408.40 476.70 404.20 473.00 L 398.90 468.30 C 396.00 465.80 395.80 461.70 397.70 458.90 C 398.60 457.60 399.90 456.60 401.50 456.10 L 439.40 444.70 C 439.70 444.60 439.90 444.50 440.10 444.30 C 441.30 443.40 441.40 441.70 440.20 440.60 L 426.30 428.70 L 421.80 424.90 L 421.00 424.20 C 416.60 420.50 418.20 413.30 423.80 411.90 L 443.30 406.80 L 455.60 418.60 L 480.30 442.20 C 481.10 442.90 481.70 443.80 482.10 444.70 C 484.70 449.60 482.40 456.10 476.70 457.90 Z" fill="#bbcbff" fill-rule="nonzero" group-id="14,28,42" id="XMLID_89_" node-id="78" stroke="none" target-height="71.100006" target-width="88.899994" target-x="395.8" target-y="406.8"></path></g><path d="M 440.20 444.30 C 441.40 443.40 441.50 441.70 440.30 440.60 L 426.40 428.70 L 384.80 443.10 C 378.90 445.20 372.30 443.70 367.70 439.40 L 362.40 434.30 C 359.40 431.40 359.60 426.70 362.30 424.00 C 364.90 427.80 373.90 436.60 379.80 436.80 C 385.50 437.00 427.40 422.10 427.40 422.10 C 427.40 422.10 445.70 437.70 446.40 438.50 C 448.30 440.50 443.40 443.50 440.20 444.30 Z" fill="#99adf9" fill-rule="nonzero" group-id="14,28" id="XMLID_80_" node-id="79" stroke="none" target-height="23.100006" target-width="88.899994" target-x="359.4" target-y="422.1"></path><path d="M 506.70 400.90 L 455.60 418.60 L 450.20 413.60 C 450.20 413.60 500.40 395.40 506.90 393.60 C 507.80 393.40 508.60 393.20 509.40 393.00 C 511.20 395.80 510.10 399.70 506.70 400.90 Z" fill="#99adf9" fill-rule="nonzero" group-id="14,28" id="XMLID_78_" node-id="80" stroke="none" target-height="25.600006" target-width="61" target-x="450.2" target-y="393"></path><path d="M 476.70 457.90 L 419.50 476.20 C 414.20 477.90 408.40 476.70 404.20 473.00 L 398.90 468.30 C 396.00 465.80 395.80 461.70 397.70 458.90 C 402.20 462.00 411.40 468.40 413.70 469.00 C 416.70 469.70 429.00 465.70 442.40 460.90 C 455.80 456.10 477.80 447.20 482.20 444.80 C 484.70 449.60 482.40 456.10 476.70 457.90 Z" fill="#99adf9" fill-rule="nonzero" group-id="14,28" id="XMLID_76_" node-id="81" stroke="none" target-height="33.100006" target-width="88.899994" target-x="395.8" target-y="444.8"></path></g></g><g node-id="117"><g node-id="131"><path d="M 484.60 316.00 C 482.70 310.10 477.70 304.80 468.20 300.20 C 438.60 285.80 406.50 315.20 387.40 335.80 C 377.80 346.20 371.70 355.60 370.30 363.80 C 368.90 371.90 372.10 378.70 381.20 383.70 C 416.20 403.10 446.70 377.70 465.60 357.10 C 478.20 343.00 488.60 328.40 484.60 316.00 Z M 443.00 342.50 C 425.50 358.20 410.10 371.80 397.80 364.70 C 396.80 364.10 396.10 363.40 395.70 362.50 L 395.70 362.50 C 393.70 357.90 400.40 349.30 416.10 336.20 C 434.80 320.50 445.70 312.10 455.30 315.70 C 457.70 316.60 459.20 317.70 459.80 319.10 C 461.90 323.40 456.20 330.60 443.00 342.50 Z" fill="#bbcbff" fill-rule="nonzero" group-id="15,29" id="XMLID_183_" node-id="84" stroke="none" target-height="117.30002" target-width="119.69998" target-x="368.90002" target-y="285.8"></path><path d="M 465.40 357.00 C 446.50 377.70 416.00 403.10 381.00 383.60 C 371.90 378.60 368.70 371.80 370.10 363.70 C 372.90 369.20 378.70 376.40 390.70 379.70 C 411.40 385.40 432.60 380.00 454.50 358.80 C 473.70 340.10 480.20 326.00 484.50 316.00 C 488.60 328.40 478.20 343.00 465.40 357.00 Z" fill="#99adf9" fill-rule="nonzero" group-id="15,29" id="XMLID_187_" node-id="85" stroke="none" target-height="87.100006" target-width="119.899994" target-x="368.7" target-y="316"></path><path d="M 459.80 319.00 C 459.10 317.60 457.60 316.50 455.30 315.60 C 445.70 312.00 434.80 320.40 416.10 336.10 C 400.40 349.30 393.70 357.80 395.70 362.40 C 394.70 361.60 393.60 360.10 393.20 356.90 C 392.50 350.90 396.20 345.10 407.00 335.10 C 417.80 325.10 433.30 312.40 442.80 310.40 C 452.20 308.50 458.80 313.40 459.70 317.30 C 459.80 317.90 459.80 318.40 459.80 319.00 Z" fill="#99adf9" fill-rule="nonzero" group-id="15,29" id="XMLID_182_" node-id="86" stroke="none" target-height="53.899994" target-width="67.29996" target-x="392.50003" target-y="308.5"></path></g></g><g node-id="118"><g node-id="132"><g node-id="145"><path d="M 401.40 285.20 L 392.40 289.40 C 387.20 291.80 380.90 289.50 378.60 284.20 L 331.00 175.60 C 329.60 172.30 330.30 168.60 332.60 166.10 C 333.40 165.20 334.40 164.50 335.50 164.00 L 346.90 158.90 C 351.40 156.90 356.60 158.90 358.60 163.40 L 406.50 271.70 C 407.00 272.70 407.20 273.80 407.30 274.90 C 407.70 279.10 405.50 283.30 401.40 285.20 Z" fill="#bbcbff" fill-rule="nonzero" group-id="16,30,43" id="XMLID_56_" node-id="90" stroke="none" target-height="134.9" target-width="78.10004" target-x="329.6" target-y="156.9"></path><path d="M 430.30 203.10 L 385.20 223.40 L 375.60 227.70 L 359.80 205.50 L 396.20 189.00 C 396.70 188.80 397.10 188.50 397.50 188.10 C 399.10 186.60 399.40 184.00 397.90 182.10 L 379.60 159.00 C 376.70 155.30 377.10 150.30 379.90 147.00 C 380.80 145.90 382.00 145.10 383.40 144.50 L 390.80 141.60 C 394.60 140.10 399.00 141.20 401.60 144.50 L 434.50 186.00 C 434.90 186.50 435.20 187.00 435.50 187.60 C 438.50 193.20 436.30 200.30 430.30 203.10 Z" fill="#bbcbff" fill-rule="nonzero" group-id="16,30,43" id="XMLID_37_" node-id="91" stroke="none" target-height="87.59999" target-width="78.70001" target-x="359.79996" target-y="140.1"></path></g><path d="M 430.30 203.10 L 385.20 223.40 L 381.40 215.40 C 381.40 215.40 419.10 200.10 428.80 194.50 C 432.40 192.40 434.40 189.90 435.50 187.60 C 438.50 193.20 436.30 200.30 430.30 203.10 Z" fill="#99adf9" fill-rule="nonzero" group-id="16,30" id="XMLID_34_" node-id="92" stroke="none" target-height="35.799973" target-width="57.099976" target-x="381.4" target-y="187.60002"></path><path d="M 401.40 285.20 L 392.40 289.40 C 387.20 291.80 380.90 289.50 378.60 284.20 L 331.00 175.60 C 329.60 172.30 330.30 168.60 332.60 166.10 C 342.20 187.30 384.60 280.90 385.10 282.20 C 385.70 283.70 385.90 284.70 390.20 282.80 C 394.20 281.00 403.90 277.40 407.40 274.90 C 407.70 279.10 405.50 283.30 401.40 285.20 Z" fill="#99adf9" fill-rule="nonzero" group-id="16,30" id="XMLID_33_" node-id="93" stroke="none" target-height="125.69998" target-width="78.10004" target-x="329.6" target-y="166.1"></path><path d="M 397.40 188.20 C 399.00 186.70 399.30 184.10 397.80 182.20 L 379.50 159.10 C 376.60 155.40 377.00 150.40 379.80 147.10 C 383.70 152.20 403.30 177.60 405.10 180.90 C 406.50 183.30 401.20 186.40 397.40 188.20 Z" fill="#99adf9" fill-rule="nonzero" group-id="16,30" id="XMLID_32_" node-id="94" stroke="none" target-height="41.09999" target-width="29.899963" target-x="376.6" target-y="147.1"></path></g></g><g node-id="119"><g node-id="133"><path d="M 215.60 179.70 C 215.60 181.11 215.04 182.45 214.05 183.45 C 213.05 184.44 211.71 185.00 210.30 185.00 C 208.89 185.00 207.55 184.44 206.55 183.45 C 205.56 182.45 205.00 181.11 205.00 179.70 C 205.00 178.29 205.56 176.95 206.55 175.95 C 207.55 174.96 208.89 174.40 210.30 174.40 C 211.71 174.40 213.05 174.96 214.05 175.95 C 215.04 176.95 215.60 178.29 215.60 179.70 Z" fill="#bbcbff" fill-rule="nonzero" group-id="17,31" id="XMLID_1_" node-id="97" stroke="none" target-height="10.600006" target-width="10.600006" target-x="205" target-y="174.4"></path><path d="M 215.60 159.00 C 215.60 160.41 215.04 161.75 214.05 162.75 C 213.05 163.74 211.71 164.30 210.30 164.30 C 208.89 164.30 207.55 163.74 206.55 162.75 C 205.56 161.75 205.00 160.41 205.00 159.00 C 205.00 157.59 205.56 156.25 206.55 155.25 C 207.55 154.26 208.89 153.70 210.30 153.70 C 211.71 153.70 213.05 154.26 214.05 155.25 C 215.04 156.25 215.60 157.59 215.60 159.00 Z" fill="#bbcbff" fill-rule="nonzero" group-id="17,31" id="XMLID_11_" node-id="98" stroke="none" target-height="10.600006" target-width="10.600006" target-x="205" target-y="153.7"></path><path d="M 215.60 138.30 C 215.60 139.71 215.04 141.05 214.05 142.05 C 213.05 143.04 211.71 143.60 210.30 143.60 C 208.89 143.60 207.55 143.04 206.55 142.05 C 205.56 141.05 205.00 139.71 205.00 138.30 C 205.00 136.89 205.56 135.55 206.55 134.55 C 207.55 133.56 208.89 133.00 210.30 133.00 C 211.71 133.00 213.05 133.56 214.05 134.55 C 215.04 135.55 215.60 136.89 215.60 138.30 Z" fill="#bbcbff" fill-rule="nonzero" group-id="17,31" id="XMLID_20_" node-id="99" stroke="none" target-height="10.600006" target-width="10.600006" target-x="205" target-y="133"></path></g></g></svg>