<?xml version="1.0" standalone="no"?><!DOCTYPE svg PUBLIC "-//W3C//DTD SVG 1.1//EN" "http://www.w3.org/Graphics/SVG/1.1/DTD/svg11.dtd"><svg height="1024" node-id="1" sillyvg="true" template-height="1024" template-width="1024" version="1.1" viewBox="0 0 1024 1024" width="1024" xmlns="http://www.w3.org/2000/svg" xmlns:xlink="http://www.w3.org/1999/xlink"><defs node-id="138"><linearGradient gradientUnits="objectBoundingBox" id="linearGradient-1" node-id="5" spreadMethod="pad" x1="0.5" x2="0.5" y1="0" y2="1"><stop offset="0" stop-color="#f9ab21"></stop><stop offset="1" stop-color="#fee127"></stop></linearGradient><linearGradient gradientUnits="objectBoundingBox" id="linearGradient-2" node-id="8" spreadMethod="pad" x1="0.5" x2="0.5" y1="0" y2="1"><stop offset="0" stop-color="#f9ab21"></stop><stop offset="1" stop-color="#fff29d" stop-opacity="0"></stop></linearGradient><linearGradient gradientUnits="objectBoundingBox" id="linearGradient-3" node-id="11" spreadMethod="pad" x1="0.5" x2="0.5" y1="0" y2="1"><stop offset="0" stop-color="#f9ab21"></stop><stop offset="1" stop-color="#fff29d" stop-opacity="0"></stop></linearGradient><linearGradient gradientUnits="objectBoundingBox" id="linearGradient-4" node-id="14" spreadMethod="pad" x1="0.5" x2="0.5" y1="1" y2="-0.112257995"><stop offset="0" stop-color="#ffffff"></stop><stop offset="1" stop-color="#e7eaf0"></stop></linearGradient><linearGradient gradientUnits="objectBoundingBox" id="linearGradient-5" node-id="17" spreadMethod="pad" x1="0.5" x2="0.5" y1="0" y2="1"><stop offset="0" stop-color="#fff29d"></stop><stop offset="1" stop-color="#f9ab21"></stop></linearGradient><linearGradient gradientUnits="objectBoundingBox" id="linearGradient1" node-id="170" spreadMethod="pad" x1="0.5" x2="0.5" y1="0" y2="1"><stop offset="0" stop-color="#fff29d"></stop><stop offset="1" stop-color="#f9ab21"></stop></linearGradient><linearGradient gradientUnits="objectBoundingBox" id="linearGradient-6" node-id="20" spreadMethod="pad" x1="0.5" x2="0.5" y1="0" y2="1"><stop offset="0" stop-color="#fff29d"></stop><stop offset="1" stop-color="#f9ab21"></stop></linearGradient><linearGradient gradientUnits="objectBoundingBox" id="linearGradient-7" node-id="23" spreadMethod="pad" x1="0.5" x2="0.5" y1="0" y2="1"><stop offset="0" stop-color="#fff29d"></stop><stop offset="1" stop-color="#f9ab21"></stop></linearGradient><linearGradient gradientUnits="objectBoundingBox" id="linearGradient2" node-id="189" spreadMethod="pad" x1="0.5" x2="0.5" y1="0" y2="1"><stop offset="0" stop-color="#fff29d"></stop><stop offset="1" stop-color="#f9ab21"></stop></linearGradient><linearGradient gradientUnits="objectBoundingBox" id="linearGradient-8" node-id="26" spreadMethod="pad" x1="0.5" x2="0.5" y1="0" y2="1"><stop offset="0" stop-color="#fff29d"></stop><stop offset="1" stop-color="#f9ab21"></stop></linearGradient><linearGradient gradientUnits="objectBoundingBox" id="linearGradient-9" node-id="29" spreadMethod="pad" x1="0.5" x2="0.5" y1="0" y2="1"><stop offset="0" stop-color="#fff29d"></stop><stop offset="1" stop-color="#f9ab21"></stop></linearGradient><linearGradient gradientUnits="objectBoundingBox" id="linearGradient-10" node-id="32" spreadMethod="pad" x1="0.5" x2="0.5" y1="0" y2="1"><stop offset="0" stop-color="#fff29d"></stop><stop offset="1" stop-color="#f9ab21"></stop></linearGradient><linearGradient gradientUnits="objectBoundingBox" id="linearGradient-11" node-id="35" spreadMethod="pad" x1="0.5" x2="0.5" y1="0" y2="1"><stop offset="0" stop-color="#fff29d"></stop><stop offset="1" stop-color="#f9ab21"></stop></linearGradient><linearGradient gradientUnits="objectBoundingBox" id="linearGradient-12" node-id="38" spreadMethod="pad" x1="0.5" x2="0.5" y1="0" y2="1"><stop offset="0" stop-color="#fff29d"></stop><stop offset="1" stop-color="#f9ab21"></stop></linearGradient><linearGradient gradientUnits="objectBoundingBox" id="linearGradient-13" node-id="41" spreadMethod="pad" x1="0.5" x2="0.5" y1="0" y2="1"><stop offset="0" stop-color="#fff29d"></stop><stop offset="1" stop-color="#f9ab21"></stop></linearGradient><linearGradient gradientUnits="objectBoundingBox" id="linearGradient-14" node-id="44" spreadMethod="pad" x1="0.5" x2="0.5" y1="0" y2="1"><stop offset="0" stop-color="#fff29d"></stop><stop offset="1" stop-color="#f9ab21"></stop></linearGradient><linearGradient gradientUnits="objectBoundingBox" id="linearGradient-15" node-id="47" spreadMethod="pad" x1="0.5" x2="0.5" y1="0" y2="1"><stop offset="0" stop-color="#fff29d"></stop><stop offset="1" stop-color="#f9ab21"></stop></linearGradient><linearGradient gradientUnits="objectBoundingBox" id="linearGradient-16" node-id="50" spreadMethod="pad" x1="0.5" x2="0.5" y1="0" y2="1"><stop offset="0" stop-color="#fff29d"></stop><stop offset="1" stop-color="#f9ab21"></stop></linearGradient><linearGradient gradientUnits="objectBoundingBox" id="linearGradient-17" node-id="53" spreadMethod="pad" x1="0.5" x2="0.5" y1="0" y2="1"><stop offset="0" stop-color="#fff29d"></stop><stop offset="1" stop-color="#f9ab21"></stop></linearGradient><linearGradient gradientUnits="objectBoundingBox" id="linearGradient-18" node-id="56" spreadMethod="pad" x1="0.5" x2="0.5" y1="-0.19003877" y2="1"><stop offset="0" stop-color="#ffcda5"></stop><stop offset="1" stop-color="#ffe8d1"></stop></linearGradient><linearGradient gradientUnits="objectBoundingBox" id="linearGradient-19" node-id="59" spreadMethod="pad" x1="0.5" x2="0.5" y1="0" y2="1"><stop offset="0" stop-color="#fff2df"></stop><stop offset="1" stop-color="#fee0bc"></stop></linearGradient><linearGradient gradientUnits="objectBoundingBox" id="linearGradient-20" node-id="62" spreadMethod="pad" x1="0.21875" x2="0.636424" y1="0.23445843" y2="1"><stop offset="0" stop-color="#fff2df"></stop><stop offset="1" stop-color="#fee0bc"></stop></linearGradient><linearGradient gradientUnits="objectBoundingBox" id="linearGradient-21" node-id="65" spreadMethod="pad" x1="0.49999997" x2="0.49999997" y1="0" y2="0.99999994"><stop offset="0" stop-color="#fff2df"></stop><stop offset="1" stop-color="#fee0bc"></stop></linearGradient><linearGradient gradientUnits="objectBoundingBox" id="linearGradient-22" node-id="68" spreadMethod="pad" x1="0.5" x2="0.5" y1="0" y2="1"><stop offset="0" stop-color="#fee127"></stop><stop offset="1" stop-color="#f9ab21"></stop></linearGradient><linearGradient gradientUnits="objectBoundingBox" id="linearGradient-23" node-id="71" spreadMethod="pad" x1="-0.07150355" x2="1" y1="0.44444442" y2="0.5555556"><stop offset="0" stop-color="#bfd4fa"></stop><stop offset="1" stop-color="#5792f0"></stop></linearGradient><linearGradient gradientUnits="objectBoundingBox" id="linearGradient-24" node-id="74" spreadMethod="pad" x1="0.5" x2="0.5" y1="0" y2="1"><stop offset="0" stop-color="#fff2df"></stop><stop offset="1" stop-color="#fee0bc"></stop></linearGradient><linearGradient gradientUnits="objectBoundingBox" id="linearGradient-25" node-id="77" spreadMethod="pad" x1="0.5" x2="0.5" y1="0" y2="1"><stop offset="0" stop-color="#fff29d"></stop><stop offset="1" stop-color="#f9ab21"></stop></linearGradient><linearGradient gradientUnits="objectBoundingBox" id="linearGradient3" node-id="304" spreadMethod="pad" x1="0.5" x2="0.5" y1="0" y2="1"><stop offset="0" stop-color="#fff29d"></stop><stop offset="1" stop-color="#f9ab21"></stop></linearGradient><linearGradient gradientUnits="objectBoundingBox" id="linearGradient-26" node-id="80" spreadMethod="pad" x1="0.5" x2="0.5" y1="0" y2="1"><stop offset="0" stop-color="#fff29d"></stop><stop offset="1" stop-color="#f9ab21"></stop></linearGradient><linearGradient gradientUnits="objectBoundingBox" id="linearGradient-27" node-id="83" spreadMethod="pad" x1="0.5" x2="0.5" y1="0" y2="1"><stop offset="0" stop-color="#fff29d"></stop><stop offset="1" stop-color="#f9ab21"></stop></linearGradient></defs><path d="M 0.00 0.00 L 1024.00 0.00 L 1024.00 1024.00 L 0.00 1024.00 Z" fill="none" id="矩形" node-id="87" stroke="none" target-height="1024" target-width="1024" target-x="0" target-y="0"></path><g node-id="322"><g node-id="323"><path d="M 47.78 652.22 C 39.60 616.92 -13.68 387.02 136.96 355.41 C 287.59 323.80 376.58 360.62 442.77 296.26 C 508.96 231.89 525.47 242.45 579.83 246.71 C 634.19 250.97 697.20 204.51 718.37 190.55 C 739.55 176.60 930.70 86.81 979.57 355.41 C 987.30 471.54 993.72 597.53 939.64 645.25 C 885.56 692.98 940.63 735.83 979.57 740.59 C 1018.52 745.35 961.37 826.89 871.41 862.50 C 811.61 889.33 424.74 966.26 193.06 887.18 C 81.19 839.27 55.97 687.52 47.78 652.22 Z" fill="url(#linearGradient-1)" fill-opacity="0.1" fill-rule="evenodd" group-id="1,2" id="路径-58" node-id="89" stroke="none" target-height="879.4528" target-width="1032.1987" target-x="-13.677994" target-y="86.80626"></path></g><path d="M 904.09 217.27 C 904.09 228.23 893.82 237.00 880.85 237.00 L 809.00 237.00 C 796.04 236.12 785.23 227.79 785.23 216.39 C 785.23 208.94 790.09 202.36 797.12 198.85 C 796.58 197.54 796.04 196.22 796.04 194.91 C 796.04 187.45 803.06 180.88 812.24 180.88 C 816.02 180.88 819.27 182.19 821.97 183.95 C 828.45 173.86 840.34 166.85 854.38 166.85 C 873.83 166.85 889.50 180.44 889.50 197.10 L 889.50 198.85 C 898.14 201.92 904.09 208.94 904.09 217.27 Z" fill="url(#linearGradient-2)" fill-rule="evenodd" group-id="1" id="路径" node-id="90" stroke="none" target-height="70.15384" target-width="118.85437" target-x="785.23083" target-y="166.84616"></path><path d="M 275.69 360.58 C 275.69 375.00 261.02 386.54 242.50 386.54 L 139.82 386.54 C 121.29 385.38 105.85 374.42 105.85 359.42 C 105.85 349.62 112.79 340.96 122.83 336.35 C 122.06 334.62 121.29 332.88 121.29 331.15 C 121.29 321.35 131.32 312.69 144.45 312.69 C 149.85 312.69 154.48 314.42 158.34 316.73 C 167.61 303.46 184.59 294.23 204.67 294.23 C 232.46 294.23 254.85 312.12 254.85 334.04 L 254.85 336.35 C 267.20 340.38 275.69 349.62 275.69 360.58 Z" fill="url(#linearGradient-3)" fill-rule="evenodd" group-id="1" id="路径" node-id="91" stroke="none" target-height="92.30768" target-width="169.84613" target-x="105.84615" target-y="294.23077"></path><path d="M 591.38 850.11 C 591.38 859.28 562.87 866.72 527.69 866.72 C 492.52 866.72 464.00 859.28 464.00 850.11 C 464.00 840.93 492.52 833.49 527.69 833.49 C 562.87 833.49 591.38 840.93 591.38 850.11 Z" fill="#fee3b1" fill-rule="evenodd" group-id="1" id="椭圆形" node-id="92" stroke="none" target-height="33.230774" target-width="127.38464" target-x="464" target-y="833.49"></path><g node-id="324"><path d="M 328.19 660.89 L 390.25 767.53 C 390.81 768.49 390.48 769.71 389.53 770.27 C 389.22 770.44 388.88 770.54 388.52 770.54 L 264.40 770.54 C 263.30 770.54 262.40 769.64 262.40 768.54 C 262.40 768.19 262.49 767.84 262.67 767.53 L 324.73 660.89 C 325.29 659.94 326.51 659.62 327.47 660.17 C 327.77 660.35 328.02 660.59 328.19 660.89 Z" fill="#be841d" fill-rule="evenodd" group-id="1,3" id="三角形" node-id="94" stroke="none" target-height="110.92328" target-width="128.40515" target-x="262.40106" target-y="659.6152"></path><path d="M 320.00 746.54 L 334.77 746.54 L 334.77 897.92 L 320.00 897.92 Z" fill="#be841d" fill-rule="evenodd" group-id="1,3" id="矩形" node-id="95" stroke="none" target-height="151.38464" target-width="14.769226" target-x="320.00003" target-y="746.53845"></path><g node-id="329"><path d="M 330.71 733.25 C 330.15 735.02 329.05 736.20 327.38 736.20 C 325.72 736.20 324.62 735.02 324.06 733.25 L 321.85 700.75 C 321.85 697.21 324.62 694.85 327.38 694.85 C 330.71 694.85 332.92 697.80 332.92 701.34 L 330.71 733.25 Z M 327.38 742.11 C 330.71 742.11 332.92 744.47 332.92 748.02 C 332.92 751.56 330.71 753.92 327.38 753.92 C 324.06 753.92 321.85 751.56 321.85 748.02 C 321.85 744.47 324.06 742.11 327.38 742.11 Z" fill="url(#linearGradient-4)" fill-rule="nonzero" group-id="1,3,8" id="形状" node-id="96" stroke="none" target-height="59.076904" target-width="11.076935" target-x="321.8462" target-y="694.8462"></path></g></g><g node-id="325"><path d="M 241.97 899.77 C 231.87 841.06 209.03 804.53 173.46 790.19 C 120.09 768.67 120.37 719.19 173.46 720.73 C 247.14 724.27 269.97 783.95 241.97 899.77 Z" fill="url(#linearGradient-5)" fill-rule="evenodd" group-id="1,4" id="路径-82" node-id="98" stroke="none" target-height="180.57764" target-width="149.88234" target-x="120.09154" target-y="719.1916"></path><path d="M 242.46 899.77 C 247.03 873.71 259.43 852.14 279.68 835.06 C 310.04 809.43 307.03 835.15 302.11 846.73 C 296.35 868.11 276.47 885.79 242.46 899.77 Z" fill="url(#linearGradient1)" fill-rule="evenodd" group-id="1,4" id="路径-83" node-id="99" stroke="none" target-height="90.33679" target-width="67.583374" target-x="242.46155" target-y="809.43243"></path><g node-id="330"><path d="M 242.46 899.77 C 237.90 873.71 225.49 852.14 205.25 835.06 C 174.88 809.43 177.89 835.15 182.82 846.73 C 188.57 868.11 208.45 885.79 242.46 899.77 Z" fill="url(#linearGradient-6)" fill-rule="evenodd" group-id="1,4,9" id="路径-83备份" node-id="100" stroke="none" target-height="90.33679" target-width="67.583405" target-x="174.87811" target-y="809.43243"></path></g><path d="M 133.54 923.59 C 160.84 918.54 175.90 914.26 178.71 910.73 C 182.93 905.45 220.08 882.76 243.24 901.87 C 248.29 895.44 264.46 890.44 273.72 901.87 C 277.95 883.83 304.37 872.27 315.86 874.14 C 328.79 873.14 366.99 873.55 369.85 923.59 C 359.42 923.83 280.66 923.83 133.54 923.59 Z" fill="url(#linearGradient-7)" fill-rule="evenodd" group-id="1,4" id="路径-47" node-id="101" stroke="none" target-height="51.561707" target-width="236.30771" target-x="133.53845" target-y="872.2677"></path></g><g node-id="326"><path d="M 432.55 457.30 C 386.43 485.25 365.24 514.86 368.98 546.14 C 372.72 577.41 378.25 607.34 385.58 635.92 C 396.24 649.50 408.59 651.09 422.63 640.68 C 436.67 630.27 455.46 614.39 479.01 593.05 L 432.55 457.30 Z" fill="url(#linearGradient2)" fill-rule="evenodd" group-id="1,5" id="路径-2" node-id="103" stroke="none" target-height="193.78925" target-width="113.763275" target-x="365.24258" target-y="457.302"></path><g node-id="331"><path d="M 636.55 457.30 C 682.67 485.25 703.86 514.86 700.12 546.14 C 696.39 577.41 690.85 607.34 683.53 635.92 C 672.87 649.50 660.52 651.09 646.48 640.68 C 632.43 630.27 613.64 614.39 590.10 593.05 L 636.55 457.30 Z" fill="url(#linearGradient-8)" fill-rule="evenodd" group-id="1,5,10" id="路径-2备份" node-id="104" stroke="none" target-height="193.78925" target-width="113.763245" target-x="590.0989" target-y="457.302"></path></g><path d="M 593.49 611.77 C 703.33 446.46 578.76 305.72 542.48 270.20 C 537.55 265.37 528.73 265.31 523.69 270.07 C 486.86 305.02 360.72 443.59 472.61 611.77 L 593.49 611.77 Z" fill="url(#linearGradient-9)" fill-rule="evenodd" group-id="1,5" id="路径" node-id="105" stroke="none" target-height="346.45624" target-width="342.6134" target-x="360.71527" target-y="265.313"></path><path d="M 542.02 270.22 C 537.32 265.39 528.91 265.29 524.09 270.04 C 511.04 282.91 486.28 309.96 465.85 347.77 L 598.77 347.77 C 578.56 310.41 554.64 283.25 542.02 270.22 Z" fill="url(#linearGradient-10)" fill-rule="evenodd" group-id="1,5" id="路径" node-id="106" stroke="none" target-height="82.47629" target-width="132.92307" target-x="465.84616" target-y="265.29294"></path><path d="M 593.60 611.77 C 597.44 606.20 601.02 600.66 604.31 595.15 L 462.15 595.15 C 465.46 600.66 468.75 606.19 472.61 611.77 L 593.60 611.77 Z" fill="url(#linearGradient-11)" fill-rule="evenodd" group-id="1,5" id="路径" node-id="107" stroke="none" target-height="16.615417" target-width="142.15387" target-x="462.15387" target-y="595.1538"></path><g node-id="332"><path d="M 596.32 702.23 C 595.48 705.87 595.51 709.11 593.21 711.41 C 592.31 712.30 591.19 713.09 589.79 713.71 C 584.77 716.04 580.28 715.08 576.29 711.43 C 573.77 709.13 571.41 706.67 568.94 704.31 C 566.00 701.53 564.93 700.52 563.81 701.64 C 563.19 702.26 562.58 703.50 561.62 705.40 C 555.79 717.02 550.01 728.63 544.17 740.24 C 543.30 742.01 542.27 743.67 540.98 744.96 C 539.74 746.19 538.23 747.15 536.32 747.71 C 530.48 749.33 525.35 747.01 522.26 740.95 C 516.20 729.11 510.34 717.13 504.34 705.24 C 501.76 700.07 501.59 700.07 497.33 704.17 C 494.77 706.67 492.28 709.22 489.64 711.63 C 485.80 715.14 481.39 715.95 476.54 713.85 C 471.83 711.77 471.29 707.72 469.69 703.02 C 461.50 678.95 469.04 646.64 469.69 643.19 C 470.24 640.32 470.54 637.63 472.41 635.75 C 472.61 635.56 472.81 635.36 473.00 635.22 C 477.46 630.87 481.87 630.39 487.96 633.28 C 511.83 644.76 536.49 646.86 561.93 639.60 C 567.54 637.97 572.96 635.81 578.23 633.23 C 587.74 628.54 596.27 639.60 596.27 644.36 C 600.80 660.86 603.66 670.48 596.32 702.23 Z" fill="url(#linearGradient-12)" fill-rule="evenodd" group-id="1,5,11" id="路径" node-id="108" stroke="none" target-height="120.79016" target-width="142.1539" target-x="461.50388" target-y="628.5433"></path></g><path d="M 472.61 611.77 L 593.23 611.77 L 593.23 628.38 L 472.61 628.38 Z" fill="url(#linearGradient-13)" fill-rule="evenodd" group-id="1,5" id="矩形" node-id="109" stroke="none" target-height="16.615417" target-width="120.62454" target-x="472.60623" target-y="611.7692"></path><path d="M 587.94 432.69 C 587.94 463.28 563.14 488.08 532.55 488.08 C 501.97 488.08 477.17 463.28 477.17 432.69 C 477.17 402.10 501.97 377.31 532.55 377.31 C 563.14 377.31 587.94 402.10 587.94 432.69 Z" fill="#ffffff" fill-rule="nonzero" group-id="1,5" id="椭圆形" node-id="110" stroke="none" target-height="110.769226" target-width="110.769196" target-x="477.1699" target-y="377.30768"></path><path d="M 569.48 432.69 C 569.48 453.08 552.95 469.62 532.55 469.62 C 512.16 469.62 495.63 453.08 495.63 432.69 C 495.63 412.30 512.16 395.77 532.55 395.77 C 552.95 395.77 569.48 412.30 569.48 432.69 Z" fill="url(#linearGradient-14)" fill-rule="evenodd" group-id="1,5" id="椭圆形" node-id="111" stroke="none" target-height="73.84613" target-width="73.84619" target-x="495.6314" target-y="395.76923"></path><path d="M 531.47 543.46 C 531.47 543.46 483.69 581.88 531.20 681.92 C 579.23 582.94 531.47 543.46 531.47 543.46 Z" fill="url(#linearGradient-15)" fill-rule="evenodd" group-id="1,5" id="路径" node-id="112" stroke="none" target-height="138.46155" target-width="95.537476" target-x="483.69348" target-y="543.46155"></path></g><g node-id="327"><path d="M 818.46 913.31 C 818.46 929.95 776.31 943.44 724.31 943.44 C 672.31 943.44 630.15 929.95 630.15 913.31 C 630.15 896.67 672.31 883.18 724.31 883.18 C 776.31 883.18 818.46 896.67 818.46 913.31 Z" fill="#fee3b1" fill-rule="evenodd" group-id="1,6" id="椭圆形" node-id="114" stroke="none" target-height="60.258423" target-width="188.30768" target-x="630.1539" target-y="883.17847"></path><g node-id="333"><path d="M 827.69 924.69 C 827.69 926.22 824.39 927.46 820.31 927.46 C 816.23 927.46 812.92 926.22 812.92 924.69 C 812.92 923.16 816.23 921.92 820.31 921.92 C 824.39 921.92 827.69 923.16 827.69 924.69 Z" fill="#be841d" fill-rule="evenodd" group-id="1,6,12" id="椭圆形" node-id="116" stroke="none" target-height="5.538452" target-width="14.769226" target-x="812.9231" target-y="921.9231"></path><path d="M 812.92 924.82 C 814.00 907.38 818.49 897.28 826.41 894.53 C 829.52 894.12 832.99 893.51 830.57 897.45 C 828.15 901.38 821.67 899.85 815.18 924.81 C 814.60 925.88 813.84 925.88 812.92 924.82 Z" fill="url(#linearGradient-16)" fill-rule="evenodd" group-id="1,6,12" id="路径-42" node-id="117" stroke="none" target-height="32.3692" target-width="20.071411" target-x="812.9231" target-y="893.51385"></path><path d="M 813.13 924.39 C 811.12 908.33 809.49 898.24 808.21 894.10 C 806.30 887.89 802.23 875.94 810.70 880.46 C 819.18 884.98 820.18 908.17 816.26 922.28 C 815.04 925.85 814.00 926.55 813.13 924.39 Z" fill="url(#linearGradient-17)" fill-rule="evenodd" group-id="1,6,12" id="路径-41" node-id="118" stroke="none" target-height="50.61554" target-width="17.954712" target-x="802.2253" target-y="875.9389"></path></g><path d="M 652.60 819.40 L 640.88 840.09 C 640.88 840.09 639.77 841.96 640.07 843.74 C 640.38 845.60 642.09 846.98 642.09 846.98 L 677.02 866.54 L 677.26 849.42 L 662.30 840.49 L 673.22 823.86 L 652.60 819.40 Z" fill="#fee0bc" fill-rule="evenodd" group-id="1,6" id="胳膊-path" node-id="119" stroke="none" target-height="47.14319" target-width="37.486877" target-x="639.772" target-y="819.3972"></path><path d="M 797.28 819.40 L 808.99 840.09 C 808.99 840.09 810.09 841.96 809.80 843.74 C 809.49 845.60 807.78 846.98 807.78 846.98 L 773.01 867.46 L 772.66 849.42 L 787.59 840.49 L 776.69 823.86 L 797.28 819.40 Z" fill="#fee0bc" fill-rule="evenodd" group-id="1,6" id="胳膊-path" node-id="120" stroke="none" target-height="48.066345" target-width="37.43396" target-x="772.6578" target-y="819.3972"></path><g node-id="334"><path d="M 712.15 760.69 L 731.85 760.69 L 731.85 780.38 L 712.15 780.38 Z" fill="url(#linearGradient-18)" fill-rule="evenodd" group-id="1,6,13" id="矩形" node-id="122" stroke="none" target-height="19.692322" target-width="19.692322" target-x="712.15466" target-y="760.69226"></path><g node-id="335"><path d="M 750.61 739.70 C 750.61 754.21 738.03 765.98 722.51 765.98 C 706.99 765.98 694.41 754.21 694.41 739.70 C 694.41 725.18 706.99 713.41 722.51 713.41 C 738.03 713.41 750.61 725.18 750.61 739.70 Z" fill="url(#linearGradient-19)" fill-rule="evenodd" group-id="1,6,13,14" id="椭圆形" node-id="124" stroke="none" target-height="52.57184" target-width="56.19745" target-x="694.4089" target-y="713.4092"></path><path d="M 756.04 740.96 C 756.04 744.57 753.85 747.49 751.15 747.49 C 748.45 747.49 746.26 744.57 746.26 740.96 C 746.26 737.36 748.45 734.44 751.15 734.44 C 753.85 734.44 756.04 737.36 756.04 740.96 Z" fill="url(#linearGradient-20)" fill-rule="evenodd" group-id="1,6,13,14" id="椭圆形" node-id="125" stroke="none" target-height="13.052307" target-width="9.789246" target-x="746.25555" target-y="734.4379"></path><g node-id="336"><path d="M 697.99 743.91 C 698.49 747.48 696.73 750.68 694.05 751.05 C 691.37 751.43 688.79 748.84 688.29 745.27 C 687.79 741.70 689.55 738.50 692.23 738.13 C 694.91 737.75 697.49 740.34 697.99 743.91 Z" fill="url(#linearGradient-21)" fill-rule="evenodd" group-id="1,6,13,14,15" id="椭圆形备份" node-id="126" stroke="none" target-height="13.677734" target-width="10.697205" target-x="687.7913" target-y="737.75085"></path></g><path d="M 696.91 745.41 C 693.03 743.44 690.22 739.35 688.49 733.13 C 685.86 718.23 693.17 704.21 698.06 701.40 C 702.95 698.59 705.75 697.03 708.33 698.50 C 710.42 695.35 721.02 689.58 737.31 695.07 C 753.60 700.57 758.33 716.90 757.43 725.18 C 756.84 730.70 754.51 736.50 750.46 742.59 L 750.46 734.33 C 749.53 738.61 748.32 741.37 746.85 742.59 C 747.50 739.36 747.71 735.42 746.98 733.61 C 746.26 731.81 746.22 735.72 745.18 738.60 C 741.05 732.97 735.64 728.98 728.95 726.63 L 728.22 728.29 C 722.00 722.11 718.04 718.42 716.32 717.21 C 713.75 715.40 712.04 715.59 711.41 717.96 C 710.56 717.41 708.40 715.65 707.29 718.72 C 705.56 722.58 702.97 727.70 702.09 738.32 C 700.34 735.28 699.07 738.64 699.58 743.17 C 698.89 743.06 698.20 742.85 697.51 742.53 L 696.91 745.41 Z" fill="#483029" fill-rule="evenodd" group-id="1,6,13,14" id="路径-67" node-id="127" stroke="none" target-height="55.83203" target-width="72.469604" target-x="685.8619" target-y="689.57526"></path></g></g><path d="M 712.59 768.57 C 714.32 769.58 717.55 772.44 722.30 777.15 C 728.24 771.43 731.20 768.57 731.20 768.57 L 755.88 772.63 C 755.88 772.63 761.66 773.60 765.19 777.10 C 774.93 786.76 791.08 805.52 791.08 805.52 L 802.41 818.11 C 799.59 821.51 796.32 824.51 792.70 827.04 C 787.01 830.94 779.35 833.94 779.35 833.94 L 770.45 825.42 L 770.45 885.10 L 679.82 885.10 L 679.82 824.60 L 674.56 831.10 C 674.56 831.10 666.77 829.58 660.00 826.23 C 655.49 823.89 651.28 821.03 647.46 817.70 L 674.16 784.82 C 675.82 783.09 677.57 781.47 679.42 779.94 C 681.09 778.61 682.85 777.39 684.68 776.29 C 686.91 775.32 689.21 774.51 691.55 773.85 C 699.81 771.57 712.59 768.57 712.59 768.57 Z" fill="url(#linearGradient-22)" fill-rule="evenodd" group-id="1,6" id="衣服" node-id="128" stroke="none" target-height="116.52466" target-width="154.953" target-x="647.45544" target-y="768.57263"></path><path d="M 778.96 862.42 C 778.96 862.42 801.11 853.19 807.55 873.32 C 813.22 891.08 794.27 894.81 794.27 894.81 L 794.27 894.81 L 779.94 897.45 L 773.69 917.33 L 723.01 907.96 L 672.29 917.33 L 666.04 897.44 L 651.86 894.82 C 651.86 894.82 632.93 891.09 638.60 873.34 C 645.02 853.21 667.16 862.44 667.16 862.44 L 722.99 877.35 L 778.96 862.42 Z" fill="url(#linearGradient-23)" fill-rule="nonzero" group-id="1,6" id="裤子" node-id="129" stroke="none" target-height="64.14154" target-width="180.2893" target-x="632.9301" target-y="853.186"></path><path d="M 667.45 902.45 L 661.35 902.85 C 659.45 902.95 657.55 902.95 655.66 902.85 C 651.74 902.69 648.11 902.68 648.11 902.68 C 648.11 902.68 640.83 902.42 639.32 904.50 C 636.42 908.50 637.93 916.64 637.93 916.64 C 637.93 916.64 638.85 920.01 640.58 921.53 C 642.04 922.81 644.71 921.85 644.71 921.85 C 644.71 921.85 649.53 920.59 654.67 919.50 C 661.63 918.02 664.61 917.53 664.61 917.53 L 671.93 915.54 L 667.45 902.45 Z M 778.53 902.45 L 784.66 902.85 C 786.57 902.95 788.48 902.95 790.39 902.85 C 794.32 902.69 797.97 902.68 797.97 902.68 C 797.97 902.68 805.29 902.42 806.81 904.51 C 809.73 908.53 808.21 916.71 808.21 916.71 C 808.21 916.71 807.29 920.09 805.55 921.62 C 804.08 922.91 801.40 921.94 801.40 921.94 C 801.40 921.94 796.55 920.67 791.39 919.58 C 784.39 918.09 781.39 917.59 781.39 917.59 L 774.03 915.60 L 778.53 902.45 Z" fill="url(#linearGradient-24)" fill-rule="evenodd" group-id="1,6" id="脚" node-id="130" stroke="none" target-height="20.48993" target-width="173.31744" target-x="636.4174" target-y="902.4157"></path><path d="M 679.57 793.26 L 768.20 793.26 C 770.92 793.26 773.12 795.31 773.12 797.84 L 773.12 862.18 L 674.66 862.18 L 674.66 797.84 C 674.66 795.31 676.86 793.26 679.57 793.26 Z M 676.01 862.18 L 771.76 862.18 C 773.13 862.18 774.39 863.04 775.07 864.42 C 775.75 865.81 775.75 867.52 775.07 868.91 C 774.39 870.29 773.13 871.15 771.76 871.15 L 676.01 871.15 C 673.90 871.15 672.19 869.14 672.19 866.66 C 672.19 864.19 673.90 862.18 676.01 862.18 L 676.01 862.18 Z" fill="#483029" fill-rule="evenodd" group-id="1,6" id="电脑" node-id="131" stroke="none" target-height="77.88898" target-width="103.55505" target-x="672.1948" target-y="793.25885"></path></g><g node-id="328"><path d="M 679.53 282.26 L 679.53 282.17 C 674.20 267.13 656.83 260.05 642.10 262.24 C 653.02 255.44 671.06 253.63 679.53 264.05 L 679.53 264.14 C 687.99 253.81 706.12 255.54 716.97 262.33 C 702.24 260.24 684.87 267.31 679.53 282.26 L 679.53 282.26 Z" fill="url(#linearGradient-25)" fill-rule="evenodd" group-id="1,7" id="路径" node-id="133" stroke="none" target-height="28.631622" target-width="74.86871" target-x="642.0972" target-y="253.6333"></path><path d="M 762.96 269.72 L 762.96 269.66 C 759.26 259.24 747.23 254.34 737.01 255.85 C 744.58 251.14 757.09 249.88 762.96 257.10 L 762.96 257.17 C 768.83 250.01 781.39 251.20 788.90 255.91 C 778.69 254.46 766.66 259.36 762.96 269.72 L 762.96 269.72 Z" fill="url(#linearGradient3)" fill-rule="evenodd" group-id="1,7" id="路径" node-id="134" stroke="none" target-height="19.842758" target-width="51.89435" target-x="737.0104" target-y="249.88124"></path><path d="M 728.17 235.25 L 728.17 235.18 C 724.47 224.76 712.43 219.86 702.22 221.37 C 709.79 216.66 722.29 215.40 728.17 222.62 L 728.17 222.69 C 734.04 215.53 746.60 216.72 754.11 221.43 C 743.90 219.99 731.87 224.89 728.17 235.25 L 728.17 235.25 Z" fill="url(#linearGradient-26)" fill-rule="evenodd" group-id="1,7" id="路径" node-id="135" stroke="none" target-height="19.842773" target-width="51.89435" target-x="702.218" target-y="215.40324"></path><path d="M 833.65 275.68 L 833.65 275.64 C 831.08 268.42 822.74 265.02 815.66 266.06 C 820.91 262.80 829.58 261.93 833.65 266.94 L 833.65 266.98 C 837.72 262.02 846.42 262.84 851.63 266.11 C 844.55 265.10 836.21 268.50 833.65 275.68 Z" fill="url(#linearGradient-27)" fill-rule="evenodd" group-id="1,7" id="路径" node-id="136" stroke="none" target-height="13.754547" target-width="35.97455" target-x="815.6589" target-y="261.92963"></path></g></g></svg>