<?xml version="1.0" standalone="no"?><!DOCTYPE svg PUBLIC "-//W3C//DTD SVG 1.1//EN" "http://www.w3.org/Graphics/SVG/1.1/DTD/svg11.dtd"><svg height="1024" node-id="1" sillyvg="true" template-height="1024" template-width="1024" version="1.1" viewBox="0 0 1024 1024" width="1024" xmlns="http://www.w3.org/2000/svg" xmlns:xlink="http://www.w3.org/1999/xlink"><defs node-id="122"><linearGradient gradientUnits="objectBoundingBox" id="linearGradient-1" node-id="5" spreadMethod="pad" x1="0.5" x2="0.5" y1="1" y2="-0.41476682"><stop offset="0" stop-color="#ffdc4d" stop-opacity="0"></stop><stop offset="1" stop-color="#f4b538"></stop></linearGradient><linearGradient gradientUnits="objectBoundingBox" id="linearGradient-2" node-id="8" spreadMethod="pad" x1="0.5" x2="0.5" y1="1" y2="-0.41476682"><stop offset="0" stop-color="#ffdc4d" stop-opacity="0"></stop><stop offset="1" stop-color="#f4b538"></stop></linearGradient><linearGradient gradientUnits="objectBoundingBox" id="linearGradient-3" node-id="11" spreadMethod="pad" x1="0.45251164" x2="0.9923633" y1="0.9971597" y2="0.9971597"><stop offset="0" stop-color="#ffdc4d"></stop><stop offset="1" stop-color="#f4b538"></stop></linearGradient><linearGradient gradientUnits="objectBoundingBox" id="linearGradient-4" node-id="14" spreadMethod="pad" x1="0.45251164" x2="0.9923633" y1="0.9971597" y2="0.9971597"><stop offset="0" stop-color="#ffdc4d"></stop><stop offset="1" stop-color="#f4b538"></stop></linearGradient><linearGradient gradientUnits="objectBoundingBox" id="linearGradient-5" node-id="17" spreadMethod="pad" x1="0.45251164" x2="0.9923633" y1="0.9971597" y2="0.9971597"><stop offset="0" stop-color="#ffdc4d"></stop><stop offset="1" stop-color="#f4b538"></stop></linearGradient><linearGradient gradientUnits="objectBoundingBox" id="linearGradient-6" node-id="20" spreadMethod="pad" x1="0.45251164" x2="0.9923633" y1="0.9971597" y2="0.9971597"><stop offset="0" stop-color="#ffdc4d"></stop><stop offset="1" stop-color="#f4b538"></stop></linearGradient><linearGradient gradientUnits="objectBoundingBox" id="linearGradient-7" node-id="23" spreadMethod="pad" x1="0.45251164" x2="0.9923633" y1="0.9971597" y2="0.9971597"><stop offset="0" stop-color="#ffdc4d"></stop><stop offset="1" stop-color="#f4b538"></stop></linearGradient><linearGradient gradientUnits="objectBoundingBox" id="linearGradient-8" node-id="26" spreadMethod="pad" x1="-0.26255283" x2="1.3051119" y1="0.45220426" y2="0.5127226"><stop offset="0" stop-color="#ffdc4d"></stop><stop offset="1" stop-color="#f4b538"></stop></linearGradient><linearGradient gradientUnits="objectBoundingBox" id="linearGradient-9" node-id="29" spreadMethod="pad" x1="0.045088757" x2="0.6106977" y1="0" y2="0.53773046"><stop offset="0" stop-color="#ffdc4d"></stop><stop offset="1" stop-color="#f4b538"></stop></linearGradient><linearGradient gradientUnits="objectBoundingBox" id="linearGradient-10" node-id="32" spreadMethod="pad" x1="0" x2="1" y1="0.3046875" y2="0.41793194"><stop offset="0" stop-color="#ffdc4d"></stop><stop offset="1" stop-color="#f4b538"></stop></linearGradient><linearGradient gradientUnits="objectBoundingBox" id="linearGradient-11" node-id="35" spreadMethod="pad" x1="-0.07836157" x2="1" y1="0.25748074" y2="0.6873747"><stop offset="0" stop-color="#ffdc4d"></stop><stop offset="1" stop-color="#f4b538"></stop></linearGradient><linearGradient gradientUnits="objectBoundingBox" id="linearGradient-12" node-id="38" spreadMethod="pad" x1="-0.05545845" x2="1.9387304" y1="0.22549766" y2="1"><stop offset="0" stop-color="#ffdc4d"></stop><stop offset="1" stop-color="#f4b538"></stop></linearGradient><linearGradient gradientUnits="objectBoundingBox" id="linearGradient-13" node-id="41" spreadMethod="pad" x1="-0.22187416" x2="0.719675" y1="0.5980333" y2="0.7205432"><stop offset="0" stop-color="#ffdc4d"></stop><stop offset="1" stop-color="#f4b538"></stop></linearGradient><linearGradient gradientUnits="objectBoundingBox" id="linearGradient-14" node-id="44" spreadMethod="pad" x1="0.070389636" x2="0.83082885" y1="0.22549766" y2="0.83737445"><stop offset="0" stop-color="#ffdc4d"></stop><stop offset="1" stop-color="#f4b538"></stop></linearGradient><linearGradient gradientUnits="objectBoundingBox" id="linearGradient-15" node-id="47" spreadMethod="pad" x1="0.053254116" x2="1.6571466" y1="0.22549766" y2="1"><stop offset="0" stop-color="#ffdc4d"></stop><stop offset="1" stop-color="#f4b538"></stop></linearGradient><linearGradient gradientUnits="objectBoundingBox" id="linearGradient-16" node-id="50" spreadMethod="pad" x1="-0.22187416" x2="0.719675" y1="0.7414436" y2="1.0431697"><stop offset="0" stop-color="#ffdc4d"></stop><stop offset="1" stop-color="#f4b538"></stop></linearGradient><linearGradient gradientUnits="objectBoundingBox" id="linearGradient-17" node-id="53" spreadMethod="pad" x1="0.32891864" x2="0.57755953" y1="0" y2="1.4904206"><stop offset="0" stop-color="#ffdc4d"></stop><stop offset="1" stop-color="#f4b538"></stop></linearGradient><linearGradient gradientUnits="objectBoundingBox" id="linearGradient-18" node-id="56" spreadMethod="pad" x1="0.5" x2="0.44756463" y1="-0.087982394" y2="1.1401728"><stop offset="0" stop-color="#ffdc4d"></stop><stop offset="1" stop-color="#f4b538"></stop></linearGradient><linearGradient gradientUnits="objectBoundingBox" id="linearGradient1" node-id="232" spreadMethod="pad" x1="0.86275023" x2="-0.000000000000027057475" y1="-0.028050492" y2="-0.028050492"><stop offset="0" stop-color="#1d181c"></stop><stop offset="0.3" stop-color="#2c2422"></stop><stop offset="0.5" stop-color="#42352c"></stop><stop offset="0.7" stop-color="#57352c"></stop><stop offset="1" stop-color="#923629"></stop></linearGradient><linearGradient gradientUnits="objectBoundingBox" id="linearGradient-19" node-id="59" spreadMethod="pad" x1="0.86275023" x2="-0.000000000000027057475" y1="-0.028050492" y2="-0.028050492"><stop offset="0" stop-color="#1d181c"></stop><stop offset="0.3" stop-color="#2c2422"></stop><stop offset="0.5" stop-color="#42352c"></stop><stop offset="0.7" stop-color="#57352c"></stop><stop offset="1" stop-color="#923629"></stop></linearGradient><linearGradient gradientUnits="objectBoundingBox" id="linearGradient-20" node-id="65" spreadMethod="pad" x1="0.5" x2="0.5" y1="-0.19003877" y2="1"><stop offset="0" stop-color="#ffcda5"></stop><stop offset="1" stop-color="#ffe8d1"></stop></linearGradient><linearGradient gradientUnits="objectBoundingBox" id="linearGradient-21" node-id="68" spreadMethod="pad" x1="0.5" x2="0.5" y1="0" y2="1"><stop offset="0" stop-color="#fff2df"></stop><stop offset="1" stop-color="#fee0bc"></stop></linearGradient><linearGradient gradientUnits="objectBoundingBox" id="linearGradient-22" node-id="71" spreadMethod="pad" x1="0.20414202" x2="0.6435098" y1="0.23445843" y2="1"><stop offset="0" stop-color="#fff2df"></stop><stop offset="1" stop-color="#fee0bc"></stop></linearGradient><linearGradient gradientUnits="objectBoundingBox" id="linearGradient-23" node-id="74" spreadMethod="pad" x1="0.49999997" x2="0.49999997" y1="0" y2="0.99999994"><stop offset="0" stop-color="#fff2df"></stop><stop offset="1" stop-color="#fee0bc"></stop></linearGradient><linearGradient gradientUnits="objectBoundingBox" id="linearGradient-24" node-id="77" spreadMethod="pad" x1="-0.08680927" x2="1.2003694" y1="0.6675602" y2="0.5"><stop offset="0" stop-color="#41b093"></stop><stop offset="1" stop-color="#184657"></stop></linearGradient></defs><path d="M 0.00 0.00 L 1024.00 0.00 L 1024.00 1024.00 L 0.00 1024.00 Z" fill="none" id="矩形" node-id="81" stroke="none" target-height="1024" target-width="1024" target-x="0" target-y="0"></path><g node-id="286"><path d="M 78.44 571.06 C 12.05 494.49 36.38 429.10 151.45 374.87 C 244.37 352.19 222.66 359.10 233.66 294.06 C 244.67 229.02 273.93 209.05 359.90 242.24 C 445.88 275.44 526.37 259.74 579.83 202.53 C 633.29 145.32 973.14 78.97 862.89 417.90 C 804.23 561.42 909.41 625.64 926.05 630.04 C 942.68 634.44 1098.67 749.45 862.89 844.95 C 627.11 940.46 209.30 903.63 130.48 869.99 C 51.66 836.35 106.75 708.45 151.45 678.02 C 181.24 657.74 156.90 622.09 78.44 571.06 Z" fill="#f1bc01" fill-opacity="0.05" fill-rule="evenodd" group-id="1" id="路径-64" node-id="82" stroke="none" target-height="861.4861" target-width="1086.6228" target-x="12.046184" target-y="78.96929"></path></g><path d="M 259.49 319.00 L 244.79 319.00 C 244.79 289.73 220.94 266.00 191.52 266.00 C 162.10 266.00 138.24 289.73 138.24 319.00 L 127.51 319.00 C 113.97 319.00 103.00 330.87 103.00 345.50 C 103.00 360.14 113.97 372.00 127.51 372.00 L 259.49 372.00 C 273.03 372.00 284.00 360.14 284.00 345.50 C 284.00 330.86 273.03 319.00 259.49 319.00 Z" fill="url(#linearGradient-1)" fill-rule="evenodd" id="云" node-id="83" stroke="none" target-height="106" target-width="181" target-x="103" target-y="266"></path><path d="M 798.53 205.00 L 788.06 205.00 C 788.06 184.01 771.06 167.00 750.09 167.00 C 729.12 167.00 712.12 184.01 712.12 205.00 L 704.47 205.00 C 694.82 205.00 687.00 213.51 687.00 224.00 C 687.00 234.49 694.82 243.00 704.47 243.00 L 798.53 243.00 C 808.18 243.00 816.00 234.49 816.00 224.00 C 816.00 213.51 808.18 205.00 798.53 205.00 Z" fill="url(#linearGradient-2)" fill-rule="evenodd" id="云" node-id="84" stroke="none" target-height="76" target-width="129" target-x="687" target-y="167"></path><g node-id="287"><path d="M 866.13 832.34 C 863.73 821.35 856.69 813.67 845.02 809.29 C 831.70 805.00 824.41 799.90 832.74 796.20 C 839.78 795.64 854.79 790.15 866.13 822.96 C 866.92 826.14 866.92 829.27 866.13 832.34 Z" fill="url(#linearGradient-3)" fill-rule="evenodd" group-id="2" id="路径-43" node-id="86" stroke="none" target-height="42.190857" target-width="42.51831" target-x="824.40576" target-y="790.15076"></path><path d="M 866.10 833.76 C 859.14 807.64 851.24 788.57 842.40 776.55 C 835.90 768.34 836.36 756.59 842.40 753.93 C 848.58 753.24 859.98 752.17 868.56 797.18 C 869.10 800.28 872.12 818.39 868.56 830.08 C 868.03 831.68 867.21 832.91 866.10 833.76 Z" fill="url(#linearGradient-4)" fill-rule="evenodd" group-id="2" id="路径-44" node-id="87" stroke="none" target-height="81.58722" target-width="36.21753" target-x="835.9027" target-y="752.17053"></path><path d="M 867.71 827.53 C 870.85 815.89 870.45 800.72 866.51 781.99 C 860.49 763.84 850.22 741.51 868.95 741.00 C 876.55 742.04 885.73 750.03 882.26 789.87 C 880.14 805.94 876.47 815.44 872.61 827.53 C 871.27 828.28 869.63 828.28 867.71 827.53 Z" fill="url(#linearGradient-5)" fill-rule="evenodd" group-id="2" id="路径-45" node-id="88" stroke="none" target-height="87.28137" target-width="35.509583" target-x="850.2155" target-y="741"></path><path d="M 871.14 832.34 C 869.88 799.28 875.89 775.55 889.19 761.16 C 892.78 756.35 906.43 751.85 906.38 766.92 C 904.95 773.41 901.90 787.25 884.31 808.36 C 878.52 815.98 874.71 827.12 874.67 829.73 C 874.65 831.47 873.47 832.34 871.14 832.34 Z" fill="url(#linearGradient-6)" fill-rule="evenodd" group-id="2" id="路径-46" node-id="89" stroke="none" target-height="80.4942" target-width="36.551636" target-x="869.8788" target-y="751.8474"></path><path d="M 803.00 836.50 C 816.17 834.06 823.43 832.00 824.79 830.29 C 826.83 827.74 844.75 816.78 855.92 826.01 C 858.36 822.91 866.16 820.49 870.62 826.01 C 872.67 817.30 885.41 811.72 890.95 812.62 C 897.20 812.14 915.62 812.34 917.00 836.50 C 911.97 836.62 873.97 836.62 803.00 836.50 Z" fill="url(#linearGradient-7)" fill-rule="evenodd" group-id="2" id="路径-47" node-id="90" stroke="none" target-height="24.903137" target-width="114" target-x="803" target-y="811.716"></path></g><path d="M 659.00 301.00 L 659.00 300.91 C 653.73 286.21 636.56 279.29 622.00 281.42 C 632.80 274.78 650.63 273.01 659.00 283.20 L 659.00 283.28 C 667.36 273.19 685.28 274.87 696.00 281.51 C 681.45 279.47 664.28 286.38 659.00 300.99 L 659.00 301.00 Z M 741.50 289.00 L 741.50 288.94 C 737.86 278.35 726.04 273.38 716.00 274.90 C 723.44 270.12 735.73 268.85 741.50 276.18 L 741.50 276.25 C 747.27 268.98 759.61 270.19 767.00 274.97 C 756.96 273.50 745.14 278.48 741.50 289.00 L 741.50 289.00 Z M 706.50 255.00 L 706.50 254.94 C 702.86 244.35 691.04 239.38 681.00 240.90 C 688.44 236.12 700.73 234.85 706.50 242.18 L 706.50 242.25 C 712.27 234.98 724.61 236.19 732.00 240.97 C 721.96 239.50 710.14 244.48 706.50 255.00 L 706.50 255.00 Z M 811.00 294.00 L 811.00 293.96 C 808.44 286.90 800.08 283.58 793.00 284.60 C 798.25 281.42 806.93 280.56 811.00 285.45 L 811.00 285.50 C 815.08 280.65 823.79 281.46 829.00 284.65 C 821.92 283.66 813.56 286.99 811.00 294.00 Z" fill="url(#linearGradient-8)" fill-rule="evenodd" id="形状结合" node-id="91" stroke="none" target-height="66.152374" target-width="207" target-x="622" target-y="234.84763"></path><g node-id="288"><path d="M 167.19 549.00 C 161.41 585.19 160.75 609.38 165.20 621.58 C 166.86 620.25 168.69 618.98 170.72 617.77 L 166.73 625.04 C 185.63 684.15 213.58 729.04 250.58 759.71 C 266.03 769.35 313.60 810.21 304.37 739.59 C 298.21 692.51 275.54 647.40 236.37 604.28 L 226.17 601.74 L 232.21 597.15 C 226.45 586.57 219.28 577.20 210.72 569.04 C 209.05 570.34 206.67 571.44 203.57 572.34 L 206.21 563.70 L 167.19 549.00 Z" fill="url(#linearGradient-9)" fill-rule="evenodd" group-id="3" id="路径-78" node-id="93" stroke="none" target-height="261.20667" target-width="152.85077" target-x="160.75183" target-y="549"></path><path d="M 117.46 700.76 C 97.46 706.95 88.42 701.38 90.35 684.06 C 93.24 658.08 90.37 657.18 73.06 648.51 C 55.75 639.83 64.80 623.51 78.49 626.72 C 87.61 628.87 99.26 634.06 113.43 642.29 C 126.10 650.18 132.48 649.48 132.56 640.21 C 132.68 626.29 123.92 612.93 137.90 618.79 C 151.89 624.64 166.44 656.79 167.30 672.01 C 167.87 682.15 172.73 685.22 181.88 681.21 L 188.62 654.18 C 195.60 636.39 202.56 647.70 209.49 688.09 C 217.39 709.80 223.71 715.55 228.46 705.35 C 245.28 686.42 264.79 707.33 287.00 768.09 C 309.20 828.84 277.27 836.40 191.19 790.76 C 186.59 778.32 178.45 770.40 166.75 767.01 C 149.20 761.92 131.13 756.07 138.11 730.96 C 142.76 714.22 135.88 704.16 117.46 700.76 Z" fill="url(#linearGradient-10)" fill-rule="evenodd" group-id="3" id="路径-79" node-id="94" stroke="none" target-height="223.46704" target-width="253.454" target-x="55.7477" target-y="612.9346"></path></g><g node-id="289"><path d="M 271.00 584.17 L 271.00 849.33 C 271.00 859.59 280.39 867.90 291.97 867.90 L 526.67 877.00 L 543.28 867.90 L 581.22 733.46 L 528.61 631.74 L 604.00 564.00 L 291.82 565.58 C 280.30 565.67 271.00 573.96 271.00 584.17 Z" fill="url(#linearGradient-11)" fill-rule="evenodd" group-id="4" id="路径" node-id="96" stroke="none" target-height="313" target-width="333" target-x="271" target-y="564"></path><path d="M 271.00 596.15 L 271.00 857.44 C 271.00 867.69 280.34 876.00 291.85 876.00 L 525.22 876.00 L 565.00 734.35 L 508.58 629.05 L 565.00 576.00 L 291.70 577.58 C 280.25 577.67 271.00 585.96 271.00 596.15 Z" fill="url(#linearGradient-12)" fill-rule="evenodd" group-id="4" id="路径备份" node-id="97" stroke="none" target-height="300" target-width="294" target-x="271" target-y="576"></path><path d="M 549.40 794.88 L 563.00 745.00 C 503.93 779.09 473.84 796.17 472.74 796.24 C 449.23 777.98 418.17 751.46 379.57 716.66 C 372.87 710.61 361.20 710.42 354.21 716.25 L 271.00 818.96 L 271.00 856.78 C 271.00 866.93 278.03 877.00 293.86 877.00 L 526.66 877.00 L 549.40 794.88 Z" fill="url(#linearGradient-13)" fill-rule="evenodd" group-id="4" id="路径" node-id="98" stroke="none" target-height="166.57715" target-width="292" target-x="271" target-y="710.42285"></path><path d="M 720.48 591.00 L 842.25 618.71 C 853.12 621.16 859.86 630.72 857.54 640.39 L 775.75 909.37 C 773.06 920.57 759.53 926.92 747.45 922.67 L 571.00 880.13 L 659.59 734.40 L 636.51 632.28 L 720.48 591.00 Z" fill="url(#linearGradient-14)" fill-rule="evenodd" group-id="4" id="路径备份-2" node-id="99" stroke="none" target-height="335.92206" target-width="288.86346" target-x="571" target-y="591"></path><path d="M 702.86 598.00 L 824.29 625.67 C 835.13 628.13 841.86 637.67 839.54 647.33 L 761.17 905.38 C 758.49 916.58 745.01 922.92 732.96 918.67 L 557.00 876.18 L 642.14 741.23 L 619.12 639.23 L 702.86 598.00 Z" fill="url(#linearGradient-15)" fill-rule="evenodd" group-id="4" id="路径" node-id="100" stroke="none" target-height="324.91852" target-width="284.85822" target-x="557" target-y="598"></path><path d="M 769.00 883.23 L 682.45 736.74 C 677.93 730.19 668.32 728.05 660.85 731.94 L 642.47 740.27 L 557.00 875.44 C 658.74 900.46 715.59 914.15 727.56 916.50 C 745.50 920.03 758.66 917.58 761.36 906.31 L 769.00 883.23 Z" fill="url(#linearGradient-16)" fill-rule="evenodd" group-id="4" id="路径" node-id="101" stroke="none" target-height="191.98004" target-width="212" target-x="557" target-y="728.0549"></path><path d="M 778.00 693.00 C 778.00 711.78 760.76 727.00 739.50 727.00 C 718.24 727.00 701.00 711.78 701.00 693.00 C 701.00 674.22 718.24 659.00 739.50 659.00 C 760.76 659.00 778.00 674.22 778.00 693.00 Z" fill="#ffffff" fill-rule="nonzero" group-id="4" id="椭圆形" node-id="102" stroke="none" target-height="68" target-width="77" target-x="701" target-y="659"></path><g node-id="291"><path d="M 202.52 384.28 L 222.25 446.35 L 250.27 434.24 L 275.62 480.30 L 258.76 414.88 L 230.27 427.19 Z" fill="url(#linearGradient-17)" fill-rule="evenodd" group-id="4,6" id="路径-2" node-id="103" stroke="none" target-height="96.02182" target-width="73.10817" target-x="202.5165" target-y="384.28012"></path></g><path d="M 761.70 436.72 L 672.34 487.31 L 712.81 521.77 L 642.80 569.52 C 715.09 539.62 750.53 523.78 749.13 521.99 C 747.72 520.19 733.72 508.83 707.12 487.91 L 761.70 436.72 Z" fill="url(#linearGradient-18)" fill-rule="evenodd" group-id="4,7" id="路径-3" node-id="104" stroke="none" target-height="132.79404" target-width="118.90216" target-x="642.8025" target-y="436.7217"></path></g><g node-id="290"><g node-id="293"><path d="M 440.27 686.78 L 440.38 695.68 C 445.80 696.61 451.49 699.04 457.46 702.96 C 461.20 706.16 461.21 707.38 461.03 709.67 C 460.90 711.19 449.28 709.56 426.16 704.78 L 429.37 682.00 L 440.27 686.78 Z" fill="#333333" fill-rule="nonzero" group-id="5,8" id="路径-52备份" node-id="106" stroke="none" target-height="29.19104" target-width="35.055023" target-x="426.15808" target-y="682.0011"></path></g><g node-id="294"><path d="M 477.27 686.78 L 477.38 695.68 C 482.80 696.61 488.49 699.04 494.46 702.96 C 498.20 706.16 498.21 707.38 498.03 709.67 C 497.90 711.19 486.28 709.56 463.16 704.78 L 466.37 682.00 L 477.27 686.78 Z" fill="#333333" fill-rule="nonzero" group-id="5,9" id="路径-52备份-2" node-id="107" stroke="none" target-height="29.19104" target-width="35.055023" target-x="463.15805" target-y="682.0011"></path></g><path d="M 405.40 525.14 C 400.97 544.03 402.67 557.35 410.52 565.08 C 418.08 565.97 432.19 567.07 452.85 568.38 C 453.64 608.29 454.65 636.03 455.86 651.59 C 457.08 667.15 458.42 680.62 459.87 692.00 L 480.91 690.89 L 486.00 572.71 C 485.90 554.48 482.34 541.82 475.31 534.72 C 468.29 527.62 460.64 523.38 452.37 522.00 L 405.40 525.14 Z" fill="url(#linearGradient1)" fill-rule="nonzero" group-id="5" id="路径-62备份" node-id="108" stroke="none" target-height="170" target-width="85.0325" target-x="400.9675" target-y="522"></path><path d="M 370.40 525.14 C 365.97 544.03 367.67 557.35 375.52 565.08 C 383.08 565.97 397.19 567.07 417.85 568.38 C 418.64 608.29 419.65 636.03 420.86 651.59 C 422.08 667.15 423.42 680.62 424.87 692.00 L 445.91 690.89 L 451.00 572.71 C 450.90 554.48 447.34 541.82 440.31 534.72 C 433.29 527.62 425.64 523.38 417.37 522.00 L 370.40 525.14 Z" fill="url(#linearGradient-19)" fill-rule="nonzero" group-id="5" id="路径-62" node-id="109" stroke="none" target-height="170" target-width="85.0325" target-x="365.9675" target-y="522"></path><path d="M 344.83 469.00 L 333.81 488.31 C 333.81 488.31 332.77 490.05 333.05 491.72 C 333.34 493.46 334.95 494.75 334.95 494.75 L 371.77 513.00 L 372.00 497.02 L 353.95 488.69 L 364.21 473.17 L 344.83 469.00 Z" fill="#fee0bc" fill-rule="evenodd" group-id="5" id="胳膊-path" node-id="110" stroke="none" target-height="44" target-width="39.231018" target-x="332.76898" target-y="469"></path><path d="M 479.17 469.00 L 490.20 487.94 C 490.20 487.94 491.23 489.65 490.95 491.28 C 490.66 492.99 489.06 494.25 489.06 494.25 L 452.33 513.00 L 452.00 496.48 L 470.05 488.31 L 459.79 473.09 L 479.17 469.00 Z" fill="#fee0bc" fill-rule="evenodd" group-id="5" id="胳膊-path" node-id="111" stroke="none" target-height="44" target-width="39.23114" target-x="452" target-y="469"></path><g node-id="295"><path d="M 401.00 411.00 L 421.00 411.00 L 421.00 430.00 L 401.00 430.00 Z" fill="url(#linearGradient-20)" fill-rule="evenodd" group-id="5,10" id="矩形" node-id="113" stroke="none" target-height="19" target-width="20" target-x="401" target-y="411"></path><path d="M 438.00 388.00 C 438.00 402.36 425.46 414.00 410.00 414.00 C 394.54 414.00 382.00 402.36 382.00 388.00 C 382.00 373.64 394.54 362.00 410.00 362.00 C 425.46 362.00 438.00 373.64 438.00 388.00 Z" fill="url(#linearGradient-21)" fill-rule="evenodd" group-id="5,10" id="椭圆形" node-id="114" stroke="none" target-height="52" target-width="56" target-x="382" target-y="362"></path><path d="M 444.00 389.50 C 444.00 393.09 441.76 396.00 439.00 396.00 C 436.24 396.00 434.00 393.09 434.00 389.50 C 434.00 385.91 436.24 383.00 439.00 383.00 C 441.76 383.00 444.00 385.91 444.00 389.50 Z" fill="url(#linearGradient-22)" fill-rule="evenodd" group-id="5,10" id="椭圆形" node-id="115" stroke="none" target-height="13" target-width="10" target-x="434" target-y="383"></path><g node-id="296"><path d="M 385.57 392.40 C 386.07 395.94 384.31 399.11 381.64 399.49 C 378.96 399.86 376.40 397.30 375.90 393.76 C 375.40 390.23 377.17 387.05 379.84 386.68 C 382.51 386.30 385.07 388.87 385.57 392.40 Z" fill="url(#linearGradient-23)" fill-rule="evenodd" group-id="5,10,11" id="椭圆形备份" node-id="116" stroke="none" target-height="13.557922" target-width="10.665466" target-x="375.40292" target-y="386.30426"></path></g><path d="M 384.90 394.00 C 381.05 392.06 378.26 388.01 376.55 381.87 C 373.94 367.14 381.19 353.29 386.03 350.51 C 390.88 347.73 393.65 346.19 396.22 347.64 C 398.29 344.52 408.79 338.82 424.94 344.25 C 441.09 349.69 445.79 365.83 444.90 374.01 C 444.30 379.46 442.00 385.20 437.98 391.22 L 437.98 383.05 C 437.06 387.29 435.86 390.01 434.40 391.22 C 435.05 388.03 435.25 384.13 434.54 382.34 C 433.82 380.56 433.77 384.43 432.75 387.27 C 428.65 381.71 423.29 377.77 416.66 375.44 L 415.93 377.09 C 409.77 370.98 405.84 367.32 404.14 366.13 C 401.59 364.35 399.90 364.53 399.27 366.87 C 398.42 366.33 396.28 364.59 395.18 367.63 C 393.47 371.44 390.90 376.50 390.03 386.99 C 388.29 383.99 387.04 387.31 387.54 391.79 C 386.86 391.68 386.18 391.47 385.49 391.16 L 384.90 394.00 Z" fill="#000000" fill-rule="evenodd" group-id="5,10" id="路径-67" node-id="117" stroke="none" target-height="55.179047" target-width="71.84503" target-x="373.9411" target-y="338.82095"></path></g><path d="M 401.16 421.55 C 402.46 422.95 405.58 426.31 410.51 431.61 C 417.26 424.54 420.63 421.00 420.63 421.00 L 440.06 425.28 C 440.06 425.28 445.40 426.18 448.65 429.40 C 457.64 438.31 472.55 455.61 472.55 455.61 L 483.00 467.22 C 480.40 470.36 477.38 473.13 474.04 475.46 C 468.79 479.06 461.72 481.82 461.72 481.82 L 453.51 473.96 L 453.51 529.00 L 369.87 529.00 L 369.87 473.21 L 365.02 479.20 C 365.02 479.20 357.82 477.80 351.57 474.71 C 347.42 472.56 343.53 469.92 340.00 466.85 L 364.64 436.52 C 366.18 434.93 367.80 433.43 369.49 432.03 C 371.04 430.80 372.66 429.67 374.35 428.66 C 376.41 427.76 378.53 427.01 380.70 426.41 C 388.31 424.30 401.16 421.55 401.16 421.55 Z" fill="url(#linearGradient-24)" fill-rule="nonzero" group-id="5" id="衣服" node-id="118" stroke="none" target-height="108" target-width="143" target-x="340" target-y="421"></path><path d="M 456.00 531.00 L 370.00 531.00 L 370.00 478.77 C 370.00 476.14 372.16 474.00 374.82 474.00 L 451.18 474.00 C 453.84 474.00 456.00 476.14 456.00 478.77 L 456.00 531.00 Z" fill="#825852" fill-rule="evenodd" group-id="5" id="Fill-1633" node-id="119" stroke="none" target-height="57" target-width="86" target-x="370" target-y="474"></path><path d="M 460.00 529.00 L 366.00 529.00 L 366.00 530.23 C 366.00 530.65 366.51 531.00 367.15 531.00 L 458.85 531.00 C 459.49 531.00 460.00 530.65 460.00 530.23 L 460.00 529.00 Z" fill="#483029" fill-rule="evenodd" group-id="5" id="Fill-1634" node-id="120" stroke="none" target-height="2" target-width="94" target-x="366" target-y="529"></path></g></svg>