<?xml version="1.0" encoding="UTF-8"?>
<svg xmlns="http://www.w3.org/2000/svg" viewBox="0 0 32 32">
  <path fill="#fde047" d="M16 4l1.5 3 3.5.5-2.5 2.4.6 3.5L16 11.8l-3.1 1.6.6-3.5-2.5-2.4 3.5-.5L16 4z"/>
  <path fill="#ef4444" d="M10 14c-2 1-3 3-2.5 5.5 1 4.5 5 7.5 8.5 7.5s7.5-3 8.5-7.5c.5-2.5-.5-4.5-2.5-5.5-1.5 2-4 3-6 3s-4.5-1-6-3z"/>
  <ellipse cx="16" cy="19" rx="7" ry="5.5" fill="#fca5a5"/>
  <circle cx="13" cy="18" r="1.2" fill="#431407"/>
  <circle cx="19" cy="18" r="1.2" fill="#431407"/>
  <path fill="#431407" d="M14.5 20.5c.8.5 2.2.5 3 0" stroke="#431407" stroke-width="0.6" stroke-linecap="round"/>
  <path fill="#fbbf24" d="M8 16.5l-2 1 1.5-1.5-1-2 2 1.2 1.8-1.3-.3 2.2 1.8 1.5-2.2-.5-1.8 1.3z"/>
  <path fill="#fbbf24" d="M24 16.5l2 1-1.5-1.5 1-2-2 1.2-1.8-1.3.3 2.2-1.8 1.5 2.2-.5 1.8-1.3z"/>
  <path fill="#22c55e" d="M16 25c0 1.5-1 2.5-2 3.5h4c-1-1-2-2-2-3.5z"/>
</svg>
