<?xml version="1.0" standalone="no"?><!DOCTYPE svg PUBLIC "-//W3C//DTD SVG 1.1//EN" "http://www.w3.org/Graphics/SVG/1.1/DTD/svg11.dtd"><svg t="1660140287880" class="icon" viewBox="0 0 1024 1024" version="1.1" xmlns="http://www.w3.org/2000/svg" p-id="1137" xmlns:xlink="http://www.w3.org/1999/xlink" width="200" height="200"><defs><style type="text/css"></style></defs><path d="M570.68544 92.16c157.45024 0 285.0816 127.63136 285.0816 285.0816v31.09888C938.1376 457.472 993.28 547.44064 993.28 650.30144 993.28 805.7856 867.2256 931.84 711.74144 931.84H312.25856C156.7744 931.84 30.72 805.7856 30.72 650.30144 30.72 543.40608 90.28608 450.42688 178.04288 402.7392V377.2416C178.05312 219.79136 305.69472 92.16 463.13472 92.16h107.56096z" fill="#F8EEDE" p-id="1138"></path><path d="M570.68544 92.16c82.88256 0 157.4912 35.35872 209.58208 91.82208 79.73888-65.26976 141.2096-69.45792 184.4224-12.56448 69.18144 91.10528 5.2736 217.61024-72.07936 260.41344-0.6656 0.36864-1.3312 0.7168-2.00704 1.06496 53.99552 44.4416 91.136 108.61568 100.4032 181.49376l5.7856 0.01024c-227.46112 1.30048-386.51904-126.40256-477.15328-383.09888l-2.72384-7.81312-3.14368-5.41696-3.1232 5.41696C420.78208 484.5568 261.56032 614.8608 32.99328 614.4c10.30144-80.9472 54.95808-151.15264 118.89664-195.54304-67.6864-51.52768-115.5072-164.2496-52.3264-247.4496 40.0384-52.71552 95.76448-52.992 167.17824-0.8192A284.09856 284.09856 0 0 1 463.13472 92.16H570.6752z" fill="#F5E5CD" p-id="1139"></path><path d="M502.17984 882.44224a24.55552 10.24 0 1 0 49.11104 0 24.55552 10.24 0 1 0-49.11104 0Z" fill="#B8917C" p-id="1140"></path><path d="M286.94528 547.50208c-28.2112-9.76896 16.55808-140.53376 44.76928-130.7648 28.2112 9.76896 41.0624 46.96064 28.69248 83.07712-12.35968 36.10624-45.25056 57.45664-73.46176 47.68768z m447.92832 0c28.2112-9.76896-16.55808-140.53376-44.76928-130.7648-28.2112 9.76896-41.0624 46.96064-28.69248 83.07712 12.35968 36.10624 45.2608 57.45664 73.46176 47.68768z" fill="#150D0A" p-id="1141"></path><path d="M521.8304 843.14112c48.81408 0 88.39168-37.60128 88.39168-83.968 0-46.37696-176.7936-46.37696-176.7936 0 0 46.36672 39.5776 83.968 88.39168 83.968z" fill="#D4AC99" p-id="1142"></path><path d="M591.1552 754.0224c-50.04288 31.70304-68.52608 52.5824-55.43936 62.63808 0.48128 0.59392 10.4448 3.81952 25.68192-13.7216 5.59104-6.4512 15.5136-22.74304 29.75744-48.91648z m-138.0864 0c50.04288 31.70304 68.52608 52.5824 55.43936 62.63808-0.48128 0.59392-10.4448 3.81952-25.68192-13.7216-5.59104-6.4512-15.5136-22.74304-29.75744-48.91648z" fill="#9F574D" p-id="1143"></path><path d="M763.89376 236.81024C839.80288 132.48512 900.8128 110.6944 946.944 171.4176c69.18144 91.10528 5.26336 217.61024-72.0896 260.41344C823.296 460.36992 786.29888 395.3664 763.904 236.81024z m-481.28 0C206.71488 132.48512 145.69472 110.6944 99.57376 171.4176c-69.18144 91.10528-5.26336 217.61024 72.0896 260.41344 51.56864 28.53888 88.55552-36.46464 110.97088-195.0208z" fill="#F4DDBA" p-id="1144"></path><path d="M747.95008 639.30368c52.67456 0 95.37536-18.16576 95.37536-40.57088s-42.7008-40.57088-95.37536-40.57088c-52.6848 0-95.3856 18.16576-95.3856 40.57088s42.7008 40.57088 95.3856 40.57088z m-471.90016 0c52.6848 0 95.3856-18.16576 95.3856-40.57088s-42.7008-40.57088-95.3856-40.57088c-52.67456 0-95.37536 18.16576-95.37536 40.57088s42.7008 40.57088 95.37536 40.57088z" fill="#D36F3E" fill-opacity=".3" p-id="1145"></path></svg>