<?xml version="1.0" standalone="no"?><!DOCTYPE svg PUBLIC "-//W3C//DTD SVG 1.1//EN" "http://www.w3.org/Graphics/SVG/1.1/DTD/svg11.dtd"><svg t="1660140273903" class="icon" viewBox="0 0 1024 1024" version="1.1" xmlns="http://www.w3.org/2000/svg" p-id="975" xmlns:xlink="http://www.w3.org/1999/xlink" width="200" height="200"><defs><style type="text/css"></style></defs><path d="M793.6 102.4C920.84224 102.4 1024 205.55776 1024 332.8c0 80.05632-40.82688 150.56896-102.79936 191.86688 0.26624 5.98016 0.39936 12.00128 0.39936 18.05312 0 226.21184-183.38816 409.6-409.6 409.6S102.4 768.93184 102.4 542.72c0-6.05184 0.13312-12.07296 0.38912-18.06336C40.83712 483.36896 0 412.85632 0 332.8 0 205.55776 103.15776 102.4 230.4 102.4a229.46816 229.46816 0 0 1 147.32288 53.248A408.82176 408.82176 0 0 1 512 133.12c47.03232 0 92.2112 7.92576 134.27712 22.528C686.21312 122.38848 737.5872 102.4 793.6 102.4z" fill="#D2D7EF" p-id="976"></path><path d="M878.66368 194.78528a92.16 92.16 0 0 1 27.4944 177.65376 87.1424 87.1424 0 0 0-56.10496-73.40032 87.1424 87.1424 0 0 0-47.91296-72.1408 91.99616 91.99616 0 0 1 76.52352-32.11264z m-731.48416 0a92.16 92.16 0 0 0-27.4944 177.65376 87.1424 87.1424 0 0 1 56.10496-73.40032 87.1424 87.1424 0 0 1 47.91296-72.1408 91.99616 91.99616 0 0 0-76.52352-32.11264z" fill="#97A0CC" p-id="977"></path><path d="M430.08 573.44m81.92 0l0 0q81.92 0 81.92 81.92l0 92.16q0 81.92-81.92 81.92l0 0q-81.92 0-81.92-81.92l0-92.16q0-81.92 81.92-81.92Z" fill="#2E2722" p-id="978"></path><path d="M337.92 645.12c22.6304 0 40.96-22.92736 40.96-51.2s-18.3296-51.2-40.96-51.2-40.96 22.92736-40.96 51.2 18.3296 51.2 40.96 51.2z m348.16 0c22.6304 0 40.96-22.92736 40.96-51.2s-18.3296-51.2-40.96-51.2-40.96 22.92736-40.96 51.2 18.3296 51.2 40.96 51.2z" fill="#554F48" p-id="979"></path><path d="M327.68 624.64a30.72 30.72 0 1 0 0-61.44 30.72 30.72 0 0 0 0 61.44z m368.64 0a30.72 30.72 0 1 0 0-61.44 30.72 30.72 0 0 0 0 61.44z" fill="#C0945A" p-id="980"></path><path d="M327.68 614.4c5.65248 0 10.24-9.1648 10.24-20.48s-4.58752-20.48-10.24-20.48-10.24 9.1648-10.24 20.48 4.58752 20.48 10.24 20.48z m368.64 0c5.65248 0 10.24-9.1648 10.24-20.48s-4.58752-20.48-10.24-20.48-10.24 9.1648-10.24 20.48 4.58752 20.48 10.24 20.48z" fill="#2A2620" p-id="981"></path><path d="M393.0624 805.19168a15.36 15.36 0 0 1 20.30592 7.71072c25.35424 56.36096 59.11552 83.0976 102.3488 83.0976 43.24352 0 77.0048-26.73664 102.35904-83.0976a15.36 15.36 0 1 1 28.01664 12.5952c-29.92128 66.51904-73.728 101.2224-130.37568 101.2224-56.6272 0-100.44416-34.70336-130.36544-101.2224a15.36 15.36 0 0 1 7.71072-20.30592z" fill="#2E2722" p-id="982"></path></svg>