<?xml version="1.0" standalone="no"?><!DOCTYPE svg PUBLIC "-//W3C//DTD SVG 1.1//EN" "http://www.w3.org/Graphics/SVG/1.1/DTD/svg11.dtd"><svg t="1660140496169" class="icon" viewBox="0 0 1024 1024" version="1.1" xmlns="http://www.w3.org/2000/svg" p-id="1144" xmlns:xlink="http://www.w3.org/1999/xlink" width="200" height="200"><defs><style type="text/css"></style></defs><path d="M850.49344 71.68c18.3296 43.47904 12.20608 95.90784-18.37056 157.2864C918.3744 304.9472 972.8 416.256 972.8 540.24192v7.59808C972.8 776.88832 787.12832 962.56 558.08 962.56h-92.16C236.87168 962.56 51.2 776.88832 51.2 547.84v-7.59808c0-121.856 52.56192-231.45472 136.26368-307.33312C155.1872 169.8304 148.40832 116.09088 167.1168 71.68c-0.49152 0.23552 47.49312 3.00032 135.71072 87.1424A413.32736 413.32736 0 0 1 465.92 125.52192h92.16a413.48096 413.48096 0 0 1 158.65856 31.4368c79.94368-75.66336 126.33088-84.08064 132.93568-85.13536l0.55296-0.08192c0.2048-0.03072 0.28672-0.0512 0.26624-0.06144z" fill="#B17B56" p-id="1145"></path><path d="M259.06176 339.33312L483.35872 563.2a73.65632 73.65632 0 0 0 19.15904 13.80352c-13.63968 104.12032-102.88128 184.51456-210.92352 184.51456-117.49376 0-212.74624-95.06816-212.74624-212.33664 0-106.21952 78.16192-194.23232 180.21376-209.85856z m505.87648 0L540.64128 563.2a73.65632 73.65632 0 0 1-19.15904 13.80352c13.63968 104.12032 102.88128 184.51456 210.92352 184.51456 117.49376 0 212.74624-95.06816 212.74624-212.33664 0-106.21952-78.16192-194.23232-180.21376-209.85856z" fill="#61371B" p-id="1146"></path><path d="M265.19552 341.31968c2.64192 3.9424 5.70368 7.68 9.19552 11.1616l195.39968 195.0208a73.41056 73.41056 0 0 0 30.53568 18.3296c-17.14176 89.15968-95.71328 156.53888-190.0544 156.53888-106.88512 0-193.536-86.48704-193.536-193.16736 0-90.44992 62.27968-166.36928 146.3808-187.392z" fill="#E8BFA2" p-id="1147"></path><path d="M284.94848 429.2608c69.07904 3.56352 125.97248 53.13536 140.51328 118.59968A101.38624 101.38624 0 0 1 327.68 622.22336c-55.99232 0-101.376-45.29152-101.376-101.1712a101.1712 101.1712 0 0 1 56.45312-90.7264z" fill="#EDB41E" opacity=".603" p-id="1148"></path><path d="M309.28896 432.49664a152.27904 152.27904 0 0 1 101.3248 75.83744c-0.58368 42.68032-35.4304 77.1072-78.32576 77.1072-43.264 0-78.336-35.0208-78.336-78.19264 0-34.7136 22.67136-64.14336 54.03648-74.3424z" fill="#000000" p-id="1149"></path><path d="M341.504 530.24768a13.81376 13.81376 0 0 0 0-27.5968c-7.63904 0-13.824 6.17472-13.824 13.79328 0 7.6288 6.18496 13.80352 13.824 13.80352zM327.68 493.45536a9.216 9.216 0 1 0 0.02048-18.42176A9.216 9.216 0 0 0 327.68 493.4656z" fill="#CACACA" p-id="1150"></path><path d="M758.80448 341.31968c-2.64192 3.9424-5.70368 7.68-9.19552 11.1616L554.20928 547.49184a73.41056 73.41056 0 0 1-30.53568 18.3296c17.14176 89.15968 95.71328 156.53888 190.0544 156.53888 106.88512 0 193.536-86.48704 193.536-193.16736 0-90.44992-62.27968-166.36928-146.3808-187.392z" fill="#E8BFA2" p-id="1151"></path><path d="M739.05152 429.2608c-69.07904 3.56352-125.97248 53.13536-140.51328 118.59968A101.38624 101.38624 0 0 0 696.32 622.22336c55.99232 0 101.376-45.29152 101.376-101.1712a101.1712 101.1712 0 0 0-56.45312-90.7264z" fill="#EDB41E" opacity=".603" p-id="1152"></path><path d="M714.71104 432.49664a152.27904 152.27904 0 0 0-101.3248 75.83744c0.58368 42.68032 35.4304 77.1072 78.32576 77.1072 43.264 0 78.336-35.0208 78.336-78.19264 0-34.7136-22.67136-64.14336-54.03648-74.3424z" fill="#000000" p-id="1153"></path><path d="M682.496 530.24768a13.81376 13.81376 0 0 1 0-27.5968c7.63904 0 13.824 6.17472 13.824 13.79328 0 7.6288-6.18496 13.80352-13.824 13.80352zM696.32 493.45536a9.216 9.216 0 1 1-0.02048-18.42176A9.216 9.216 0 0 1 696.32 493.4656z" fill="#CACACA" p-id="1154"></path><path d="M513.9456 603.83232v165.28384l36.864-82.6368z" fill="#D4A865" p-id="1155"></path><path d="M513.9456 603.83232v165.28384l-36.864-82.6368z" fill="#6D5127" p-id="1156"></path><path d="M747.95008 670.02368c52.67456 0 95.37536-18.16576 95.37536-40.57088s-42.7008-40.57088-95.37536-40.57088c-52.6848 0-95.3856 18.16576-95.3856 40.57088s42.7008 40.57088 95.3856 40.57088z m-471.90016 0c52.6848 0 95.3856-18.16576 95.3856-40.57088s-42.7008-40.57088-95.3856-40.57088c-52.67456 0-95.37536 18.16576-95.37536 40.57088s42.7008 40.57088 95.37536 40.57088z" fill="#D36F3E" fill-opacity=".3" p-id="1157"></path></svg>