<?xml version="1.0" standalone="no"?><!DOCTYPE svg PUBLIC "-//W3C//DTD SVG 1.1//EN" "http://www.w3.org/Graphics/SVG/1.1/DTD/svg11.dtd"><svg t="1660140452126" class="icon" viewBox="0 0 1024 1024" version="1.1" xmlns="http://www.w3.org/2000/svg" p-id="1296" xmlns:xlink="http://www.w3.org/1999/xlink" width="200" height="200"><defs><style type="text/css"></style></defs><path d="M486.4 51.2h51.2C777.95328 51.2 972.8 246.04672 972.8 486.4V696.32c0 124.416-100.864 225.28-225.28 225.28H276.48C152.064 921.6 51.2 820.736 51.2 696.32V486.4C51.2 246.04672 246.04672 51.2 486.4 51.2z" fill="#EEDAA4" p-id="1297"></path><path d="M450.56 593.92m56.32 0l10.24 0q56.32 0 56.32 56.32l0 71.68q0 56.32-56.32 56.32l-10.24 0q-56.32 0-56.32-56.32l0-71.68q0-56.32 56.32-56.32Z" fill="#C85F5F" p-id="1298"></path><path d="M640 471.04C710.69696 471.04 768 528.34304 768 599.04S710.69696 727.04 640 727.04 512 669.73696 512 599.04 569.30304 471.04 640 471.04z m-256 0C454.69696 471.04 512 528.34304 512 599.04S454.69696 727.04 384 727.04 256 669.73696 256 599.04 313.30304 471.04 384 471.04z" fill="#BDA054" p-id="1299"></path><path d="M602.624 281.1904c9.99424 5.31456 24.54528-2.52928 32.512-17.5104s6.32832-31.4368-3.66592-36.74112c-9.984-5.30432-24.53504 2.52928-32.50176 17.5104s-6.32832 31.4368 3.65568 36.74112z m-186.19392 0c-9.984 5.31456-24.53504-2.52928-32.50176-17.5104s-6.32832-31.4368 3.65568-36.74112c9.99424-5.30432 24.54528 2.52928 32.512 17.5104s6.32832 31.4368-3.66592 36.74112z" fill="#65511D" p-id="1300"></path><path d="M512 605.61408c56.55552 0 102.4-45.84448 102.4-102.4s-204.8-56.55552-204.8 0 45.84448 102.4 102.4 102.4z" fill="#614C12" p-id="1301"></path><path d="M795.68896 435.8144c37.09952-42.67008 32.58368-107.35616-10.09664-144.45568-42.69056-37.09952-107.3664-32.58368-144.46592 10.10688-37.09952 42.68032 117.4528 177.03936 154.56256 134.3488z m-576 0c-37.10976-42.67008-32.59392-107.35616 10.09664-144.45568 42.68032-37.09952 107.35616-32.58368 144.45568 10.10688 37.10976 42.68032-117.4528 177.03936-154.56256 134.3488z" fill="#2F2A2A" p-id="1302"></path><path d="M711.68 327.68a15.36 15.36 0 1 0 0-30.72 15.36 15.36 0 0 0 0 30.72z m-389.12 0a15.36 15.36 0 1 0 0-30.72 15.36 15.36 0 0 0 0 30.72z" fill="#FFFFFF" opacity=".732" p-id="1303"></path><path d="M809.39008 547.14368c52.67456 0 95.37536-18.16576 95.37536-40.57088s-42.7008-40.57088-95.37536-40.57088c-52.6848 0-95.3856 18.16576-95.3856 40.57088s42.7008 40.57088 95.3856 40.57088z m-574.30016 0c52.6848 0 95.3856-18.16576 95.3856-40.57088s-42.7008-40.57088-95.3856-40.57088c-52.67456 0-95.37536 18.16576-95.37536 40.57088s42.7008 40.57088 95.37536 40.57088z" fill="#D36F3E" fill-opacity=".3" p-id="1304"></path></svg>