<?xml version="1.0" standalone="no"?><!DOCTYPE svg PUBLIC "-//W3C//DTD SVG 1.1//EN" "http://www.w3.org/Graphics/SVG/1.1/DTD/svg11.dtd"><svg t="1660140480115" class="icon" viewBox="0 0 1024 1024" version="1.1" xmlns="http://www.w3.org/2000/svg" p-id="975" xmlns:xlink="http://www.w3.org/1999/xlink" width="200" height="200"><defs><style type="text/css"></style></defs><path d="M407.42912 122.88h190.98624c176.51712 0 319.61088 143.09376 319.61088 319.61088 0 2.54976-0.03072 5.09952-0.09216 7.64928-0.94208 39.26016-1.19808 63.42656-0.77824 72.51968 0.37888 8.3456 4.77184 26.96192 13.1584 55.83872 36.11648 124.3136-35.3792 254.35136-159.68256 290.4576a234.3936 234.3936 0 0 1-51.12832 8.86784L505.344 890.88l-210.13504-12.45184c-129.2288-7.64928-227.76832-118.59968-220.11904-247.81824 1.09568-18.50368 4.37248-36.8128 9.78944-54.53824 4.78208-15.6672 7.168-26.46016 7.168-32.36864 0-9.59488-1.23904-37.60128-3.74784-84.00896-9.49248-176.26112 125.68576-326.85056 301.94688-336.35328 5.7344-0.3072 11.4688-0.4608 17.19296-0.4608z" fill="#F3F3F4" p-id="976"></path><path d="M604.672 122.88a318.13632 318.13632 0 0 1 160.0512 42.9056c67.10272-29.9008 139.69408-39.09632 217.77408-27.5968-3.34848 2.84672 52.5824 164.15744-61.6448 257.28a324.29056 324.29056 0 0 1 3.29728 55.47008c-1.18784 45.12768-1.792 72.54016-1.792 82.23744 0 0.1024-0.83968 0.19456-2.47808 0.21504h-1.3824c-22.92736-0.1536-145.43872-10.68032-303.36-115.93728-30.208-20.14208-65.60768-76.36992-106.1888-168.68352-34.07872 86.12864-69.46816 142.35648-106.1888 168.68352C261.25312 518.92224 97.24928 561.0496 97.24928 543.70304c0-9.59488-1.24928-37.60128-3.74784-84.00896a321.2288 321.2288 0 0 1 2.59072-61.70624c-118.4256-92.69248-61.45024-256.9216-64.8192-259.7888 78.83776-11.6224 152.08448-2.11968 219.7504 28.48768a318.2592 318.2592 0 0 1 144.42496-43.34592c5.72416-0.3072 11.45856-0.4608 17.18272-0.4608H604.672z" fill="#D3D2D4" p-id="977"></path><path d="M753.18272 240.08704c24.10496-52.51072 99.71712-84.56192 226.85696-96.16384-3.28704 2.79552 59.86304 157.17376-66.6624 252.53888-5.632 4.23936-59.0336-47.88224-160.19456-156.37504z m-492.9536 0c-24.10496-52.51072-99.72736-84.56192-226.85696-96.16384 3.28704 2.79552-59.86304 157.17376 66.6624 252.53888 5.632 4.23936 59.0336-47.88224 160.18432-156.37504z" fill="#77767A" fill-opacity=".5" p-id="978"></path><path d="M517.09952 691.24096a15.79008 15.79008 0 0 1 12.84096 18.3296 167.5264 167.5264 0 0 1-4.18816 17.63328c9.20576 23.98208 25.43616 41.7792 48.9984 54.00576a15.70816 15.70816 0 0 1 6.71744 21.2992 16.00512 16.00512 0 0 1-21.504 6.656c-21.6064-11.20256-38.64576-26.35776-51.00544-45.24032-12.36992 18.88256-29.40928 34.03776-51.01568 45.25056a16.00512 16.00512 0 0 1-21.504-6.656 15.70816 15.70816 0 0 1 6.72768-21.30944c23.552-12.22656 39.7824-30.02368 49.00864-53.99552a163.3792 163.3792 0 0 1-4.1984-17.63328 15.79008 15.79008 0 0 1 12.84096-18.3296c2.82624-0.512 5.61152-0.24576 8.1408 0.64512 2.52928-0.89088 5.31456-1.15712 8.1408-0.65536z" fill="#BF9BAA" p-id="979"></path><path d="M508.94848 704.03072c35.19488 0 63.71328-30.0544 63.71328-50.39104 0-20.33664-127.42656-20.33664-127.42656 0s28.52864 50.39104 63.71328 50.39104z" fill="#724956" p-id="980"></path><path d="M701.184 465.17248l47.99488 3.6352a31.95904 31.95904 0 0 1 28.8768 38.4512l-6.56384 31.1808a84.21376 84.21376 0 0 1-82.41152 66.88768H633.82528A31.95904 31.95904 0 0 1 602.65472 566.34368l7.6288-33.92512A86.48704 86.48704 0 0 1 701.184 465.18272z" fill="#656581" p-id="981"></path><path d="M625.74592 536.94464a69.02784 68.38272 0 1 0 138.05568 0 69.02784 68.38272 0 1 0-138.05568 0Z" fill="#2C2C52" p-id="982"></path><path d="M324.56704 465.17248L276.57216 468.81792A31.95904 31.95904 0 0 0 247.7056 507.25888l6.5536 31.1808a84.21376 84.21376 0 0 0 82.42176 66.88768h55.23456a31.95904 31.95904 0 0 0 31.1808-38.97344l-7.6288-33.92512A86.48704 86.48704 0 0 0 324.56704 465.18272z" fill="#656581" p-id="983"></path><path d="M259.54304 536.94464a69.02784 68.38272 0 1 0 138.05568 0 69.02784 68.38272 0 1 0-138.05568 0Z" fill="#2C2C52" p-id="984"></path><path d="M758.49728 690.9952c55.7056 0 100.88448-18.8416 100.88448-42.0864 0-23.2448-45.16864-42.0864-100.88448-42.0864-55.7056 0-100.88448 18.8416-100.88448 42.0864 0 23.2448 45.16864 42.0864 100.88448 42.0864z m-499.0976 0c55.72608 0 100.88448-18.8416 100.88448-42.0864 0-23.2448-45.1584-42.0864-100.87424-42.0864-55.71584 0-100.88448 18.8416-100.88448 42.0864 0 23.2448 45.1584 42.0864 100.88448 42.0864z" fill="#D36F3E" fill-opacity=".3" p-id="985"></path></svg>