<?xml version="1.0" standalone="no"?><!DOCTYPE svg PUBLIC "-//W3C//DTD SVG 1.1//EN" "http://www.w3.org/Graphics/SVG/1.1/DTD/svg11.dtd"><svg t="1660140533683" class="icon" viewBox="0 0 1024 1024" version="1.1" xmlns="http://www.w3.org/2000/svg" p-id="1471" xmlns:xlink="http://www.w3.org/1999/xlink" width="200" height="200"><defs><style type="text/css"></style></defs><path d="M584.581734 184.48384l237.37344 31.232c105.34912 7.81312 170.8032-6.32832 196.37248-42.3936-0.73728 3.24608-5.8368 159.9488-204.46208 129.72032 0.1024-1.1776-151.21408-16.19968-169.68704-5.28384-12.31872 7.28064-32.18432-30.47424-59.5968-113.27488z m-140.6464 0l-237.38368 31.232c-105.34912 7.81312-170.8032-6.32832-196.37248-42.3936 0.73728 3.24608 5.8368 159.9488 204.47232 129.72032-0.12288-1.1776 151.20384-16.19968 169.6768-5.28384 12.32896 7.28064 32.19456-30.47424 59.5968-113.27488z" fill="#894F27" p-id="1472"></path><path d="M605.962854 112.64c123.2896 0 225.46432 90.39872 243.85536 208.5376 60.91776 15.3088 117.1968 58.0608 168.82688 128.256 4.80256 4.352-64.1024 210.56512-245.82144 217.6l-3.23584 32.512C756.531814 831.3856 645.612134 931.84 513.127014 931.84c-132.49536 0-243.4048-100.4544-256.47104-232.2944l-3.24608-32.63488C73.810534 657.85856 5.642854 453.75488 10.414694 449.4336c50.66752-68.88448 105.82016-111.34976 165.43744-127.3856C193.874534 203.48928 296.254054 112.64 419.850854 112.64h186.112z" fill="#D8A16C" p-id="1473"></path><path d="M325.868134 648.66304m115.52768 0l140.66688 0q115.52768 0 115.52768 115.52768l0 0q0 115.52768-115.52768 115.52768l-140.66688 0q-115.52768 0-115.52768-115.52768l0 0q0-115.52768 115.52768-115.52768Z" fill="#875A40" p-id="1474"></path><path d="M599.173734 676.18816L565.996134 706.72384a21.0944 21.0944 0 0 0-6.12352 20.80768l1.29024 4.9664a6.30784 6.30784 0 0 0 11.83744 1.04448l26.18368-57.344z m-169.92256 0l33.1776 30.53568c5.7344 5.2736 8.0896 13.27104 6.13376 20.80768l-1.29024 4.9664a6.30784 6.30784 0 0 1-11.84768 1.04448l-26.17344-57.344z" fill="#683215" p-id="1475"></path><path d="M382.147174 821.31968c77.93664-51.75296 164.1984-51.75296 256.1536-0.65536a15.6672 15.6672 0 0 1 6.08256 21.4528 16.0256 16.0256 0 0 1-21.69856 6.02112c-81.8688-45.49632-155.24864-45.49632-222.7712-0.65536a16.04608 16.04608 0 0 1-22.10816-4.3008 15.64672 15.64672 0 0 1 4.34176-21.8624z" fill="#603612" p-id="1476"></path><path d="M841.810534 416.62464c31.37536-22.34368 92.01664-9.6768 181.90336 37.9904 5.00736 4.53632-54.72256 228.59776-254.43328 217.32352-0.9216-3.8912 23.2448-88.9856 72.52992-255.31392z m-659.61984 0c-31.37536-22.34368-92.01664-9.6768-181.90336 37.9904-5.00736 4.53632 54.72256 228.59776 254.43328 217.32352 0.9216-3.8912-23.2448-88.9856-72.52992-255.31392z" fill="#AE7844" p-id="1477"></path><path d="M703.079014 622.6944c52.3776 0 94.84288-17.95072 94.84288-40.07936 0-22.1184-42.46528-40.05888-94.85312-40.05888s-94.85312 17.93024-94.85312 40.05888 42.46528 40.06912 94.85312 40.06912z m-367.45216 0c52.3776 0 94.85312-17.95072 94.85312-40.07936 0-22.1184-42.47552-40.05888-94.85312-40.05888-52.38784 0-94.86336 17.93024-94.86336 40.05888s42.47552 40.06912 94.86336 40.06912z" fill="#D36F3E" fill-opacity=".7" opacity=".5" p-id="1478"></path><path d="M742.697574 562.30912c35.19488 0 35.19488-126.03392 0-126.03392s-63.72352 28.2112-63.72352 63.01696c0 34.79552 28.52864 63.01696 63.72352 63.01696z m-451.5328 0c-35.19488 0-35.19488-126.03392 0-126.03392 35.18464 0 63.72352 28.2112 63.72352 63.01696 0 34.79552-28.53888 63.01696-63.72352 63.01696z" fill="#321807" p-id="1479"></path></svg>