<?xml version="1.0" standalone="no"?><!DOCTYPE svg PUBLIC "-//W3C//DTD SVG 1.1//EN" "http://www.w3.org/Graphics/SVG/1.1/DTD/svg11.dtd"><svg t="1660140559548" class="icon" viewBox="0 0 1024 1024" version="1.1" xmlns="http://www.w3.org/2000/svg" p-id="1634" xmlns:xlink="http://www.w3.org/1999/xlink" width="200" height="200"><defs><style type="text/css"></style></defs><path d="M486.4 92.16h51.2C777.95328 92.16 972.8 287.00672 972.8 527.36V737.28c0 124.416-100.864 225.28-225.28 225.28H276.48C152.064 962.56 51.2 861.696 51.2 737.28V527.36C51.2 287.00672 246.04672 92.16 486.4 92.16z" fill="#E7F2FC" p-id="1635"></path><path d="M537.6 81.92C777.95328 81.92 972.8 276.76672 972.8 517.12V727.04a224.256 224.256 0 0 1-43.22304 132.72064c-74.78272-7.08608-149.08416-34.34496-100.864-34.34496 83.11808 0 84.71552-172.61568 85.11488-176.81408 0-279.88992-74.0864-401.63328-222.26944-365.2096 10.48576 164.864 15.81056 252.16 15.98464 261.90848v0.55296c0 0.28672-0.01024 0.4096-0.04096 0.34816-38.2976 51.08736-103.49568 75.49952-195.60448 73.25696-92.11904 2.2528-157.31712-22.1696-195.61472-73.25696-0.59392 1.28 4.72064-86.3232 15.94368-262.8096-148.1728-36.42368-222.2592 85.31968-222.2592 365.2096 0.38912 4.1984 1.9968 176.81408 85.10464 176.81408 48.1792 0-25.94816 27.21792-100.6592 34.31424A224.21504 224.21504 0 0 1 51.2 727.04V517.12C51.2 276.76672 246.04672 81.92 486.4 81.92h51.2z" fill="#03040F" opacity=".732" p-id="1636"></path><path d="M313.33376 557.53728l33.13664 3.60448a225.28 225.28 0 0 0 116.92032-18.57536L508.50816 522.24l62.32064 25.0368a225.28 225.28 0 0 0 105.79968 15.16544l50.41152-4.9152-152.70912 58.35776a174.08 174.08 0 0 1-130.6112-2.56L313.344 557.52704z" fill="#9DA5BF" p-id="1637"></path><path d="M307.2 557.53728l141.01504 91.52512a112.64 112.64 0 0 0 121.18016 0.93184L716.8 557.52704c-71.4752 24.50432-140.91264 36.75136-208.29184 36.75136-67.3792 0-134.48192-12.24704-201.30816-36.74112z" fill="#363E5D" p-id="1638"></path><path d="M768 481.28m-51.2 0a51.2 51.2 0 1 0 102.4 0 51.2 51.2 0 1 0-102.4 0Z" fill="#9A9AB4" p-id="1639"></path><path d="M768 481.28m-40.96 0a40.96 40.96 0 1 0 81.92 0 40.96 40.96 0 1 0-81.92 0Z" fill="#050511" p-id="1640"></path><path d="M256 481.28m-51.2 0a51.2 51.2 0 1 0 102.4 0 51.2 51.2 0 1 0-102.4 0Z" fill="#9A9AB4" p-id="1641"></path><path d="M256 481.28m-40.96 0a40.96 40.96 0 1 0 81.92 0 40.96 40.96 0 1 0-81.92 0Z" fill="#050511" p-id="1642"></path><path d="M799.15008 618.82368c52.67456 0 95.37536-18.16576 95.37536-40.57088s-42.7008-40.57088-95.37536-40.57088c-52.6848 0-95.3856 18.16576-95.3856 40.57088s42.7008 40.57088 95.3856 40.57088z m-574.30016 0c52.6848 0 95.3856-18.16576 95.3856-40.57088s-42.7008-40.57088-95.3856-40.57088c-52.67456 0-95.37536 18.16576-95.37536 40.57088s42.7008 40.57088 95.37536 40.57088z" fill="#D36F3E" fill-opacity=".3" p-id="1643"></path></svg>