<?xml version="1.0" standalone="no"?><!DOCTYPE svg PUBLIC "-//W3C//DTD SVG 1.1//EN" "http://www.w3.org/Graphics/SVG/1.1/DTD/svg11.dtd"><svg t="1660140520126" class="icon" viewBox="0 0 1024 1024" version="1.1" xmlns="http://www.w3.org/2000/svg" p-id="1310" xmlns:xlink="http://www.w3.org/1999/xlink" width="200" height="200"><defs><style type="text/css"></style></defs><path d="M757.98528 66.89792c3.19488-0.26624 12.05248 74.24-12.01152 108.62592C831.67232 236.82048 887.52128 337.16224 887.52128 450.56c0 38.46144-6.42048 75.42784-18.25792 109.8752C935.75168 585.56416 983.04 649.82016 983.04 725.12512 983.04 822.3232 904.2432 901.12 807.03488 901.12H216.96512C119.74656 901.12 40.96 822.3232 40.96 725.12512c0-74.86464 46.73536-138.81344 112.62976-164.2496A337.42848 337.42848 0 0 1 135.168 450.56c0-186.624 151.296-337.92 337.92-337.92h76.51328c28.0576 0 55.32672 3.42016 81.408 9.87136 52.992-13.80352 95.31392-32.34816 126.976-55.61344z" fill="#FFFB71" p-id="1311"></path><path d="M757.42208 554.1888c35.64544 0 35.64544-126.1568 0-126.1568-35.6352 0-64.54272 28.24192-64.54272 63.0784s28.89728 63.0784 64.54272 63.0784z m-480.37888 0c-35.6352 0-35.6352-126.1568 0-126.1568 35.64544 0 64.54272 28.24192 64.54272 63.0784s-28.89728 63.0784-64.54272 63.0784z" fill="#3F3F3F" p-id="1312"></path><path d="M517.19168 848.55808c98.54976 0 178.44224-41.984 178.44224-93.75744 0-51.77344-356.88448-51.77344-356.88448 0 0 51.78368 79.89248 93.75744 178.44224 93.75744z" fill="#D8844A" p-id="1313"></path><path d="M606.4128 533.16608c17.17248 90.0608 48.4864 159.91808 93.92128 209.5616 0.08192 0.08192 0.1024 0.24576 0.0512 0.48128l-0.18432 0.5632-0.38912 0.768-0.93184 1.47456-1.3824 1.85344-1.1776 1.42336-1.37216 1.55648-1.59744 1.6896-1.80224 1.80224-2.01728 1.90464-2.23232 2.00704-2.4576 2.08896-2.69312 2.1504-2.9184 2.23232-3.15392 2.27328-3.3792 2.32448-3.62496 2.3552-3.87072 2.3552c-0.6656 0.4096-1.34144 0.79872-2.02752 1.18784l-4.23936 2.38592c-1.45408 0.78848-2.94912 1.57696-4.49536 2.36544l-4.74112 2.3552-2.46784 1.16736-5.13024 2.31424c-28.08832 12.19584-67.3792 22.50752-120.19712 23.6032l0.03072 0.1024-4.70016-0.03072-4.7104 0.03072 0.0512-0.08192c-54.46656-1.14688-94.5664-12.0832-122.79808-24.7808l-5.00736-2.31424-2.4064-1.1776-4.608-2.36544-4.37248-2.37568-4.11648-2.37568a180.69504 180.69504 0 0 1-1.95584-1.18784l-3.74784-2.3552-3.51232-2.34496-3.26656-2.29376-3.03104-2.2528-2.80576-2.19136-2.57024-2.12992-2.3552-2.048-2.11968-1.95584-1.91488-1.86368-1.6896-1.7408-1.4848-1.62816-1.8432-2.18112-1.3824-1.8432-0.6656-1.03424-0.48128-0.86016-0.28672-0.6656c-0.13312-0.37888-0.13312-0.62464-0.01024-0.73728 44.2368-48.3328 75.07968-115.83488 92.52864-202.496l1.3824-7.0656 89.1904 30.7712 89.16992-30.7712z" fill="#DC9A6D" p-id="1314"></path><path d="M757.98528 659.32288c54.92736 0 99.44064-18.83136 99.44064-42.05568 0-23.22432-44.51328-42.05568-99.4304-42.05568-54.92736 0-99.45088 18.83136-99.45088 42.05568 0 23.22432 44.52352 42.05568 99.44064 42.05568z m-491.97056 0c54.91712 0 99.4304-18.83136 99.4304-42.05568 0-23.22432-44.51328-42.05568-99.4304-42.05568-54.92736 0-99.44064 18.83136-99.44064 42.05568 0 23.22432 44.51328 42.05568 99.4304 42.05568z" fill="#D36F3E" fill-opacity=".3" p-id="1315"></path><path d="M664.41216 196.02432l10.5472-0.9216a52.16256 52.16256 0 0 1 56.58624 47.4112c0 0.01024 0 0.03072-0.03072 0.04096l0.94208 10.81344a26.0608 26.0608 0 0 1-42.76224 22.19008l-39.82336-33.55648a26.112 26.112 0 0 1 14.5408-45.9776z" fill="#FFFFFF" p-id="1316"></path></svg>